<?xml version="1.0" encoding="UTF-8"?>
<svg version="1.1" xmlns="http://www.w3.org/2000/svg" width="512" height="512">
<path d="M0 0 C1.36194654 -0.00576166 2.7238853 -0.0137031 4.0858078 -0.02363622 C7.82758879 -0.04452735 11.56873295 -0.03418461 15.31051636 -0.01870513 C19.34605241 -0.00740461 23.38147799 -0.02484784 27.41699219 -0.03860474 C35.32224142 -0.06085565 43.2272535 -0.05602776 51.13251209 -0.04154153 C57.5563788 -0.03025655 63.98017897 -0.02871517 70.40405273 -0.03416061 C71.31780088 -0.03492678 72.23154902 -0.03569294 73.17298651 -0.03648233 C75.0291602 -0.03808093 76.88533388 -0.03970199 78.74150753 -0.04134528 C96.15309574 -0.05560821 113.5645524 -0.03920154 130.97611904 -0.01234345 C145.92099421 0.00999583 160.86567521 0.00611585 175.81054688 -0.01693726 C193.15917408 -0.04368567 210.50768593 -0.05423486 227.85633087 -0.03887594 C229.70573423 -0.03728317 231.55513762 -0.03571131 233.40454102 -0.03416061 C234.76950785 -0.03300355 234.76950785 -0.03300355 236.16204977 -0.03182311 C242.5793341 -0.02750323 248.99654535 -0.03479885 255.41381836 -0.04655838 C263.23276788 -0.06057128 271.05146638 -0.05680903 278.87038708 -0.03015466 C282.86095689 -0.01700002 286.85110795 -0.01189174 290.8416748 -0.02840042 C294.49353181 -0.04327957 298.14458125 -0.03514679 301.79636478 -0.00851266 C303.74593494 -0.00026508 305.69556099 -0.0166239 307.64507294 -0.03379881 C315.98668888 0.06025589 315.98668888 0.06025589 320.18309593 2.68830299 C322.31638157 6.34038787 322.60291291 9.29633304 322.53921509 13.41567993 C322.54701504 14.19229918 322.55481499 14.96891842 322.56285131 15.76907158 C322.58277484 18.36806736 322.56700628 20.96559941 322.55126953 23.56460571 C322.55804552 25.4291367 322.56694855 27.293661 322.57781982 29.15817261 C322.60062192 34.22020106 322.591773 39.28172023 322.5759244 44.34375763 C322.56327018 49.63988116 322.57500418 54.93596094 322.58285522 60.23208618 C322.59195316 69.12620884 322.57996002 78.02012394 322.55615234 86.91421509 C322.52894086 97.19870321 322.53775492 107.48269575 322.56528437 117.76717186 C322.58797026 126.59534639 322.59117805 135.42337168 322.57809103 144.25156593 C322.57029368 149.5250829 322.5692628 154.79836688 322.58577347 160.0718689 C322.60021132 165.02967287 322.5902089 169.98683758 322.56130219 174.94457245 C322.55468773 176.76465544 322.5565952 178.58479218 322.56761551 180.40485382 C322.58126891 182.88868224 322.56416003 185.37045905 322.53921509 187.85415649 C322.5503687 188.57546186 322.56152231 189.29676723 322.5730139 190.03993034 C322.49916753 193.82728487 321.97006034 195.54816607 319.65739536 198.5989275 C316.7329426 200.76163933 315.76031942 201.22394097 312.21980286 200.99153137 C310.84920212 200.92325842 310.84920212 200.92325842 309.45091248 200.85360622 C308.45946732 200.77910275 307.46802216 200.70459929 306.4465332 200.62783813 C304.25710879 200.51162993 302.06763788 200.3962953 299.87812805 200.28170776 C298.71648951 200.21211098 297.55485096 200.14251419 296.35801125 200.07080841 C236.70938692 193.57074913 236.70938692 193.57074913 183.4112339 212.34305763 C174.25316438 220.57819303 166.84640901 230.96800179 161.08569336 241.80665588 C159.45863131 244.32460501 157.67750918 245.44906351 154.77539062 246.14663696 C150.94871808 246.42304188 147.99026123 246.32530535 144.6925354 244.2288208 C139.94834024 239.93186619 135.97844099 235.54351857 132.106493 230.46048164 C121.5036839 216.64445954 109.91649016 202.21675339 91.90507889 199.17886734 C76.82449644 197.43677422 61.60078052 198.22089628 46.48284912 199.05953979 C38.53187485 199.46252009 30.57323061 199.6246992 22.61473656 199.81320763 C16.44023936 199.96224769 10.27542805 200.14866242 4.1065979 200.45611572 C2.42229424 200.52750008 2.42229424 200.52750008 0.70396423 200.60032654 C-1.38646745 200.6900018 -3.47619275 200.79916866 -5.56434631 200.9316864 C-6.48826675 200.96697952 -7.41218719 201.00227264 -8.36410522 201.03863525 C-9.16208715 201.08132853 -9.96006908 201.1240218 -10.78223228 201.1680088 C-14.44065618 200.32500213 -15.85765852 198.58818099 -18.09570312 195.63491821 C-18.58911256 192.83652087 -18.77379331 190.64609357 -18.73062134 187.85415649 C-18.73842129 187.07753725 -18.74622124 186.30091801 -18.75425756 185.50076485 C-18.77418109 182.90176906 -18.75841253 180.30423702 -18.74267578 177.70523071 C-18.74945177 175.84069972 -18.7583548 173.97617543 -18.76922607 172.11166382 C-18.79202817 167.04963536 -18.78317925 161.9881162 -18.76733065 156.9260788 C-18.75467643 151.62995526 -18.76641043 146.33387548 -18.77426147 141.03775024 C-18.78335941 132.14362759 -18.77136627 123.24971249 -18.74755859 114.35562134 C-18.72034711 104.07113321 -18.72916117 93.78714068 -18.75669062 83.50266457 C-18.77937651 74.67449004 -18.7825843 65.84646475 -18.76949728 57.01827049 C-18.76169993 51.74475353 -18.76066905 46.47146955 -18.77717972 41.19796753 C-18.79161757 36.24016355 -18.78161515 31.28299885 -18.75270844 26.32526398 C-18.74609398 24.50518099 -18.74800145 22.68504425 -18.75902176 20.8649826 C-18.77267516 18.38115419 -18.75556628 15.89937738 -18.73062134 13.41567993 C-18.74177495 12.69437456 -18.75292856 11.97306919 -18.76442015 11.22990608 C-18.69751325 7.79845556 -18.10899429 5.65767207 -16.37450218 2.68830299 C-11.15938686 -0.57772162 -6.03261227 -0.05314642 0 0 Z M2.90429688 20.63491821 C2.90429688 73.43491821 2.90429688 126.23491821 2.90429688 180.63491821 C38.32608619 180.60761288 38.32608619 180.60761288 73.74755859 180.48233032 C80.62133789 180.50515747 80.62133789 180.50515747 83.84622192 180.52726746 C86.08329225 180.53417297 88.32046129 180.52349219 90.55740356 180.49858093 C111.81332183 180.28370543 111.81332183 180.28370543 117.99804688 185.75210571 C119.3473872 187.340752 120.65419101 188.96705981 121.90429688 190.63491821 C123.15024384 191.88299117 124.41521756 193.11246618 125.70166016 194.3187561 C126.87854774 195.49579699 128.05284581 196.67543244 129.22460938 197.85757446 C130.16891312 198.80400063 130.16891312 198.80400063 131.1322937 199.76954651 C133.10036845 201.74312313 135.06489732 203.7201842 137.02929688 205.69741821 C138.38062373 207.05377281 139.7321846 208.40989432 141.08398438 209.76577759 C144.36012214 213.05281376 147.63308999 216.34297518 150.90429688 219.63491821 C153.97983103 218.26486127 156.07144427 216.70898754 158.43188477 214.31851196 C159.43796532 213.30736328 159.43796532 213.30736328 160.46437073 212.27578735 C161.53484901 211.18511963 161.53484901 211.18511963 162.62695312 210.07241821 C163.36884384 209.32532593 164.11073456 208.57823364 164.87510681 207.8085022 C167.24379957 205.42200417 169.60570095 203.02893061 171.96679688 200.63491821 C174.3323155 198.24177905 176.69927389 195.85011032 179.06919861 193.46133423 C180.54329595 191.97498488 182.01471186 190.48597043 183.48316956 188.99404907 C184.48452187 187.98290039 184.48452187 187.98290039 185.50610352 186.95132446 C186.09138321 186.35779175 186.6766629 185.76425903 187.27967834 185.15274048 C190.3384105 182.29507778 192.31337099 181.38468295 196.40312195 181.35644531 C197.78215336 181.33971803 197.78215336 181.33971803 199.189044 181.32265282 C200.70457977 181.3193946 200.70457977 181.3193946 202.25073242 181.31607056 C203.33152226 181.3059173 204.41231211 181.29576405 205.52585316 181.28530312 C209.03090383 181.25462113 212.53587306 181.23749729 216.04101562 181.22085571 C218.20235907 181.20392626 220.36369575 181.1861102 222.52502441 181.16738892 C230.5472043 181.10414063 238.56951223 181.05807954 246.59179688 181.00991821 C264.51492188 180.88616821 282.43804687 180.76241821 300.90429688 180.63491821 C300.90429688 127.83491821 300.90429688 75.03491821 300.90429688 20.63491821 C202.56429687 20.63491821 104.22429687 20.63491821 2.90429688 20.63491821 Z " fill="#000000" transform="translate(104.095703125,-0.634918212890625)"/>
<path d="M0 0 C2.20371977 0.00313817 4.40606747 -0.02022395 6.60961914 -0.0456543 C18.39446369 -0.1020359 25.50627974 1.57540465 34.33422852 9.90161133 C40.57586161 16.72874275 41.88895071 24.17639737 41.83422852 33.13989258 C41.30361255 38.89176963 38.86233139 43.73009022 36.26391602 48.81567383 C35.27538347 51.30505795 35.27538347 51.30505795 36.40454102 53.63208008 C36.8827832 54.37329102 37.36102539 55.11450195 37.85375977 55.87817383 C42.02578206 62.47339811 42.20856271 68.5940255 41.54125977 76.31567383 C39.39179702 85.35377623 34.08204214 92.21611828 26.35375977 97.25317383 C19.67983994 101.26296272 12.39292549 100.57008851 4.84228516 100.61083984 C3.35162888 100.62238272 1.86101467 100.6428712 0.37060547 100.67236328 C-1.79024148 100.71508852 -3.94986688 100.73121115 -6.11108398 100.74145508 C-7.40006592 100.7560376 -8.68904785 100.77062012 -10.01708984 100.78564453 C-14.03480576 100.23700985 -15.65528931 99.19592271 -18.45874023 96.31567383 C-19.70861329 92.56605465 -19.61431398 89.06628555 -19.61987305 85.15991211 C-19.62483795 84.32869843 -19.62980286 83.49748474 -19.63491821 82.64108276 C-19.64953168 79.88937555 -19.65634022 77.13772598 -19.66186523 74.38598633 C-19.66761704 72.4741109 -19.67337477 70.5622355 -19.67913818 68.65036011 C-19.68964563 64.64052054 -19.69549008 60.63070101 -19.69897461 56.62084961 C-19.704461 51.48375612 -19.72849323 46.34692747 -19.75694656 41.20991707 C-19.77557281 37.26023586 -19.78077852 33.31061848 -19.78231049 29.36089706 C-19.7853372 27.46707587 -19.79336638 25.5732558 -19.80649567 23.67947769 C-19.82355705 21.02952173 -19.82167584 18.38021326 -19.81518555 15.73022461 C-19.82440033 14.94875061 -19.83361511 14.16727661 -19.84310913 13.36212158 C-19.80836379 8.83171838 -19.29872495 5.89560764 -16.45874023 2.31567383 C-11.55250866 -0.95514722 -5.74371068 -0.01712647 0 0 Z M1.54125977 20.31567383 C1.54125977 26.91567383 1.54125977 33.51567383 1.54125977 40.31567383 C11.5219828 40.50802127 11.5219828 40.50802127 19.47875977 35.50317383 C20.93487733 32.50528473 21.01246106 30.61408292 20.54125977 27.31567383 C18.65079517 24.11642606 17.19484766 22.63486791 13.85375977 21.00317383 C9.6364077 20.01084914 9.6364077 20.01084914 1.54125977 20.31567383 Z M1.54125977 60.31567383 C1.54125977 66.91567383 1.54125977 73.51567383 1.54125977 80.31567383 C11.5219828 80.50802127 11.5219828 80.50802127 19.47875977 75.50317383 C20.93487733 72.50528473 21.01246106 70.61408292 20.54125977 67.31567383 C18.65079517 64.11642606 17.19484766 62.63486791 13.85375977 61.00317383 C9.6364077 60.01084914 9.6364077 60.01084914 1.54125977 60.31567383 Z " fill="#000000" transform="translate(167.458740234375,286.684326171875)"/>
<path d="M0 0 C7.53430011 5.65935215 13.17336904 11.48566696 15 21 C15.10232696 23.23454997 15.14842431 25.47188466 15.16113281 27.70874023 C15.16858017 28.70706375 15.16858017 28.70706375 15.17617798 29.72555542 C15.19074331 31.91991216 15.19759123 34.11419668 15.203125 36.30859375 C15.20887995 37.83789572 15.21463764 39.36719768 15.22039795 40.89649963 C15.23089112 44.10002986 15.23674517 47.3035351 15.24023438 50.50708008 C15.24572349 54.60724623 15.26976725 58.70708105 15.29820633 62.80714321 C15.31684781 65.96504172 15.32203905 69.12286052 15.32357025 72.2808094 C15.3265926 73.79225544 15.33460706 75.30370022 15.34775543 76.81509209 C15.36485241 78.93093882 15.36292764 81.04597703 15.35644531 83.16186523 C15.36191376 84.9657798 15.36191376 84.9657798 15.36749268 86.80613708 C14.9606742 90.34177883 14.13666513 92.18021367 12 95 C7.97685134 97.68209911 4.72780081 97.68843415 0 97 C-3.49890004 94.88608123 -4.70578686 93.88263941 -6 90 C-6.08209792 88.22686149 -6.10746294 86.45079225 -6.09765625 84.67578125 C-6.09443359 83.64775391 -6.09121094 82.61972656 -6.08789062 81.56054688 C-6.07532227 79.95276367 -6.07532227 79.95276367 -6.0625 78.3125 C-6.05798828 77.22904297 -6.05347656 76.14558594 -6.04882812 75.02929688 C-6.03703757 72.35284106 -6.01910208 69.67641361 -6 67 C-12.27 67 -18.54 67 -25 67 C-24.94779297 69.40345703 -24.94779297 69.40345703 -24.89453125 71.85546875 C-24.86638903 73.96613534 -24.83908933 76.07681328 -24.8125 78.1875 C-24.78736328 79.24259766 -24.76222656 80.29769531 -24.73632812 81.38476562 C-24.72666016 82.40634766 -24.71699219 83.42792969 -24.70703125 84.48046875 C-24.6913208 85.41785889 -24.67561035 86.35524902 -24.65942383 87.32104492 C-25.07092251 90.55787288 -26.0816351 92.3796095 -28 95 C-32.02314866 97.68209911 -35.27219919 97.68843415 -40 97 C-43.49890004 94.88608123 -44.70578686 93.88263941 -46 90 C-46.10963334 87.83001011 -46.15901274 85.65681399 -46.17700195 83.48413086 C-46.18357315 82.82675934 -46.19014435 82.16938782 -46.19691467 81.49209595 C-46.21662237 79.31634395 -46.22830865 77.14066113 -46.23828125 74.96484375 C-46.24439454 73.84582263 -46.24439454 73.84582263 -46.25063133 72.70419502 C-46.27148793 68.75047204 -46.28578766 64.79678365 -46.29516602 60.84301758 C-46.30618978 56.78020414 -46.34054328 52.71794455 -46.38033772 48.65532589 C-46.40663015 45.51437949 -46.41486927 42.37356207 -46.41844749 39.23251534 C-46.42328617 37.73634695 -46.43482164 36.24018326 -46.45348549 34.74412346 C-46.59156535 22.93560945 -45.25374323 13.59685302 -36.93359375 4.7578125 C-27.59136877 -3.7351193 -11.19187275 -7.2620776 0 0 Z M-24 22 C-25.27861615 24.55723229 -25.11336609 26.36737102 -25.09765625 29.2265625 C-25.09443359 30.2578125 -25.09121094 31.2890625 -25.08789062 32.3515625 C-25.07951172 33.43179688 -25.07113281 34.51203125 -25.0625 35.625 C-25.05798828 36.71296875 -25.05347656 37.8009375 -25.04882812 38.921875 C-25.0370179 41.61460662 -25.01908205 44.30731009 -25 47 C-18.73 47 -12.46 47 -6 47 C-5.89197269 43.27005704 -5.81266403 39.54324779 -5.75 35.8125 C-5.69972656 34.22985352 -5.69972656 34.22985352 -5.6484375 32.61523438 C-5.51983797 26.42161744 -5.51983797 26.42161744 -7.890625 20.82421875 C-10.64414243 18.44293609 -11.62414728 18.0354578 -15.3125 17.6875 C-19.57536111 18.04875942 -21.01992054 19.01992054 -24 22 Z " fill="#000000" transform="translate(114,290)"/>
<path d="M0 0 C7.58834909 5.69995077 13.07524215 11.4665046 15 21 C15.10400278 22.68744373 15.15819165 24.37830659 15.17700195 26.06884766 C15.19625481 27.58159775 15.19625481 27.58159775 15.21589661 29.12490845 C15.22328354 30.21032928 15.23067047 31.29575012 15.23828125 32.4140625 C15.246353 33.53888031 15.25442474 34.66369812 15.26274109 35.82260132 C15.27656913 38.20479802 15.287297 40.58701444 15.29516602 42.96923828 C15.30667135 45.39572996 15.32709996 47.82219662 15.35668945 50.24853516 C15.39953925 53.76221856 15.41556138 57.27514962 15.42578125 60.7890625 C15.44328934 61.86233795 15.46079742 62.9356134 15.47883606 64.04141235 C15.45042323 74.01954928 12.81485714 81.93177005 5.93359375 89.2421875 C-1.9504946 96.40954055 -8.86001257 97.41023738 -19.30859375 97.19921875 C-28.88571121 96.68235844 -34.59078499 92.0104334 -41 85 C-44.59543627 79.62100085 -46.10582138 74.32837463 -46.17700195 67.93115234 C-46.18983719 66.92265228 -46.20267242 65.91415222 -46.21589661 64.87509155 C-46.22328354 63.78967072 -46.23067047 62.70424988 -46.23828125 61.5859375 C-46.246353 60.46111969 -46.25442474 59.33630188 -46.26274109 58.17739868 C-46.27656913 55.79520198 -46.287297 53.41298556 -46.29516602 51.03076172 C-46.30667135 48.60427004 -46.32709996 46.17780338 -46.35668945 43.75146484 C-46.39953925 40.23778144 -46.41556138 36.72485038 -46.42578125 33.2109375 C-46.44328934 32.13766205 -46.46079742 31.0643866 -46.47883606 29.95858765 C-46.45042323 19.98045072 -43.81485714 12.06822995 -36.93359375 4.7578125 C-27.59136877 -3.7351193 -11.19187275 -7.2620776 0 0 Z M-24 22 C-25.16959296 24.33918592 -25.1448238 25.7630092 -25.17700195 28.37036133 C-25.18983719 29.2750264 -25.20267242 30.17969147 -25.21589661 31.11177063 C-25.22328354 32.09195663 -25.23067047 33.07214264 -25.23828125 34.08203125 C-25.246353 35.08836105 -25.25442474 36.09469086 -25.26274109 37.1315155 C-25.27658717 39.26417311 -25.28730697 41.39685294 -25.29516602 43.52954102 C-25.31237593 46.7890022 -25.35625753 50.04744847 -25.40039062 53.30664062 C-25.41051767 55.3775967 -25.41903374 57.44856141 -25.42578125 59.51953125 C-25.44328934 60.49364456 -25.46079742 61.46775787 -25.47883606 62.47138977 C-25.46485514 66.83986056 -25.42781829 69.30425288 -23.09838867 73.0925293 C-20.36407622 75.57806545 -19.42504069 75.95990182 -15.6875 76.3125 C-11.42463889 75.95124058 -9.98007946 74.98007946 -7 72 C-5.83040704 69.66081408 -5.8551762 68.2369908 -5.82299805 65.62963867 C-5.81016281 64.7249736 -5.79732758 63.82030853 -5.78410339 62.88822937 C-5.77671646 61.90804337 -5.76932953 60.92785736 -5.76171875 59.91796875 C-5.753647 58.91163895 -5.74557526 57.90530914 -5.73725891 56.8684845 C-5.72341283 54.73582689 -5.71269303 52.60314706 -5.70483398 50.47045898 C-5.68762407 47.2109978 -5.64374247 43.95255153 -5.59960938 40.69335938 C-5.58948233 38.6224033 -5.58096626 36.55143859 -5.57421875 34.48046875 C-5.55671066 33.50635544 -5.53920258 32.53224213 -5.52116394 31.52861023 C-5.53514486 27.16013944 -5.57218171 24.69574712 -7.90161133 20.9074707 C-10.63592378 18.42193455 -11.57495931 18.04009818 -15.3125 17.6875 C-19.57536111 18.04875942 -21.01992054 19.01992054 -24 22 Z " fill="#000000" transform="translate(274,290)"/>
<path d="M0 0 C2.87029869 1.79393668 4.49131638 2.98263276 6 6 C6.10517205 8.06675991 6.14605604 10.13689753 6.15771484 12.20629883 C6.16797699 13.51137894 6.17823914 14.81645905 6.18881226 16.16108704 C6.19225018 16.86084467 6.1956881 17.5606023 6.19923019 18.28156471 C6.2110165 20.47171204 6.23046935 22.66166194 6.25234985 24.85173035 C6.31396854 31.07922778 6.36797417 37.30670608 6.40136719 43.53442383 C6.42233915 47.34296308 6.45766452 51.15114411 6.50212479 54.95947838 C6.5162677 56.40945907 6.52500338 57.85950315 6.52817917 59.30954933 C6.53309985 61.34161645 6.5578889 63.37360585 6.58349609 65.40551758 C6.59562637 67.13853874 6.59562637 67.13853874 6.60800171 68.90657043 C7.04310525 72.34016234 7.94680639 74.23879846 10 77 C13.13400885 78.56700442 16.63155095 78.85164561 20 78 C23.74144442 74.21349268 24.49708012 71.73503654 24.48242188 66.46899414 C24.48922974 65.16736832 24.4960376 63.86574249 24.50305176 62.52467346 C24.49737686 61.83402864 24.49170197 61.14338383 24.4858551 60.43181038 C24.46853047 58.25760528 24.47613306 56.08472255 24.4901123 53.9105072 C24.51970056 48.51214498 24.50658703 43.11403879 24.49493408 37.71563721 C24.48671452 33.14973191 24.4947321 28.58440636 24.52406311 24.0185833 C24.53113153 21.88344093 24.51451388 19.7493337 24.49694824 17.61427307 C24.5037561 16.30949509 24.51056396 15.0047171 24.51757812 13.66040039 C24.51439575 12.51632217 24.51121338 11.37224396 24.50793457 10.1934967 C25.11199171 6.27317558 26.55634579 4.08683821 29 1 C32.45739557 -0.72869779 36.21975568 -0.48966895 40 0 C42.87029869 1.79393668 44.49131638 2.98263276 46 6 C46.11252688 8.19851515 46.15937984 10.40048417 46.17700195 12.60180664 C46.18685875 13.61931503 46.18685875 13.61931503 46.19691467 14.65737915 C46.21666424 16.90830598 46.22831812 19.15916581 46.23828125 21.41015625 C46.24235678 22.18040068 46.2464323 22.9506451 46.25063133 23.74423027 C46.27150599 27.82647306 46.28579775 31.90868216 46.29516602 35.9909668 C46.30619204 40.19178259 46.34054309 44.39206303 46.38033772 48.59269047 C46.40659898 51.83482285 46.41486656 55.07683001 46.41844749 58.31905937 C46.42329438 59.86629257 46.43485382 61.41352089 46.45348549 62.96064949 C46.54858431 71.38583572 46.4458903 78.60086237 42 86 C41.1646875 87.5778125 41.1646875 87.5778125 40.3125 89.1875 C36.12712883 94.27781629 30.29217361 98.01491484 24 100 C12.64068074 101.03925687 3.90307044 100.04490518 -5.25 92.875 C-11.54443605 87.0454225 -14.74434528 79.39286991 -15.14717102 70.89552307 C-15.15701523 69.73447556 -15.16685944 68.57342804 -15.17700195 67.37719727 C-15.18685875 66.41032486 -15.18685875 66.41032486 -15.19691467 65.42391968 C-15.21652073 63.30474712 -15.22827887 61.18564483 -15.23828125 59.06640625 C-15.24235678 58.33929884 -15.2464323 57.61219143 -15.25063133 56.86305046 C-15.27143342 53.01767136 -15.28576287 49.17232736 -15.29516602 45.3269043 C-15.30624571 41.36464154 -15.34067963 37.40293796 -15.38033772 33.44087315 C-15.40651844 30.38416015 -15.41485887 27.32758056 -15.41844749 24.2707653 C-15.42330615 22.8103652 -15.43489967 21.34997077 -15.45348549 19.88968086 C-15.47792059 17.84340354 -15.4769058 15.79857679 -15.4699707 13.75219727 C-15.47583694 12.59035416 -15.48170319 11.42851105 -15.48774719 10.23146057 C-14.89196844 6.28426094 -13.46307696 4.10347445 -11 1 C-7.54260443 -0.72869779 -3.78024432 -0.48966895 0 0 Z " fill="#000000" transform="translate(203,412)"/>
<path d="M0 0 C3.49890004 2.11391877 4.70578686 3.11736059 6 7 C6.09256949 9.10499212 6.12512833 11.21279783 6.12597656 13.31982422 C6.13168671 15.27733109 6.13168671 15.27733109 6.13751221 17.27438354 C6.13770607 17.97164425 6.13789993 18.66890495 6.13809967 19.38729477 C6.14152067 22.32341069 6.16288886 25.25930625 6.18333054 28.19534492 C6.22132599 33.66004499 6.25261468 39.12450815 6.25048828 44.58935547 C6.24970065 48.39271615 6.27308337 52.19526759 6.3123703 55.9984169 C6.32282298 57.44561244 6.3243596 58.89290147 6.31671906 60.34011459 C6.30708426 62.36722566 6.33107096 64.39441157 6.35644531 66.42138672 C6.36009094 67.57371796 6.36373657 68.72604919 6.36749268 69.91329956 C7.19667469 73.95979261 8.80509284 75.46187432 12 78 C15.5 78.83333333 15.5 78.83333333 19 78 C22.18954161 75.46565165 23.80447008 73.97069978 24.61904907 69.92675781 C24.6154689 68.20730957 24.6154689 68.20730957 24.61181641 66.453125 C24.62177643 65.14827148 24.63173645 63.84341797 24.64199829 62.49902344 C24.62859775 61.08268155 24.61511721 59.66634042 24.6015625 58.25 C24.60706588 56.789376 24.6151934 55.32875974 24.62582397 53.86816406 C24.64868046 50.02960546 24.64450145 46.19161697 24.63201904 42.35302734 C24.61369384 36.20978257 24.62371645 30.06687142 24.65787888 23.92370605 C24.66396994 21.78253707 24.65074068 19.64208888 24.63589478 17.50097656 C24.64137833 15.54369629 24.64137833 15.54369629 24.64697266 13.546875 C24.64299469 12.40057617 24.63901672 11.25427734 24.63491821 10.07324219 C25.04639237 6.60947111 25.91552372 4.77334311 28 2 C32.02314866 -0.68209911 35.27219919 -0.68843415 40 0 C43.49890004 2.11391877 44.70578686 3.11736059 46 7 C46.10963334 9.16998989 46.15901274 11.34318601 46.17700195 13.51586914 C46.18685875 14.50192642 46.18685875 14.50192642 46.19691467 15.50790405 C46.21662237 17.68365605 46.22830865 19.85933887 46.23828125 22.03515625 C46.24235678 22.78117033 46.2464323 23.52718441 46.25063133 24.29580498 C46.27148793 28.24952796 46.28578766 32.20321635 46.29516602 36.15698242 C46.30618978 40.21979586 46.34054328 44.28205545 46.38033772 48.34467411 C46.40663015 51.48562051 46.41486927 54.62643793 46.41844749 57.76748466 C46.42328617 59.26365305 46.43482164 60.75981674 46.45348549 62.25587654 C46.59156535 74.06439055 45.25374323 83.40314698 36.93359375 92.2421875 C29.0495054 99.40954055 22.13998743 100.41023738 11.69140625 100.19921875 C2.11428879 99.68235844 -3.59078499 95.0104334 -10 88 C-14.03378426 81.96520466 -15.1206287 76.4204913 -15.16113281 69.29125977 C-15.16609772 68.62571075 -15.17106262 67.96016174 -15.17617798 67.27444458 C-15.19074331 65.08008784 -15.19759123 62.88580332 -15.203125 60.69140625 C-15.20887995 59.16210428 -15.21463764 57.63280232 -15.22039795 56.10350037 C-15.23089112 52.89997014 -15.23674517 49.6964649 -15.24023438 46.49291992 C-15.24572349 42.39275377 -15.26976725 38.29291895 -15.29820633 34.19285679 C-15.31684781 31.03495828 -15.32203905 27.87713948 -15.32357025 24.7191906 C-15.3265926 23.20774456 -15.33460706 21.69629978 -15.34775543 20.18490791 C-15.36485241 18.06906118 -15.36292764 15.95402297 -15.35644531 13.83813477 C-15.36009094 12.63552505 -15.36373657 11.43291534 -15.36749268 10.19386292 C-14.9606742 6.65822117 -14.13666513 4.81978633 -12 2 C-7.97685134 -0.68209911 -4.72780081 -0.68843415 0 0 Z " fill="#000000" transform="translate(323,287)"/>
<path d="M0 0 C2.55258639 1.60859507 3.86206936 2.87092607 5.35546875 5.484375 C6.26121213 10.04573131 5.94809001 13.53618098 3.48046875 17.484375 C0.14312283 20.62540645 -2.07528869 20.69325509 -6.6328125 20.65234375 C-9.21274827 20.43693164 -11.24893938 19.44261175 -13.64453125 18.484375 C-16.55991275 18.02096426 -18.62223665 18.14856449 -21.64453125 18.484375 C-25.14472833 21.21623614 -25.56456248 22.9885686 -26.26953125 27.359375 C-26.01600367 29.52914673 -26.01600367 29.52914673 -24.64453125 31.484375 C-20.22262785 34.39036843 -15.49514977 36.3936806 -10.64453125 38.484375 C-2.63989805 42.15462166 2.82348548 46.74461222 6.453125 54.97265625 C9.40762085 63.80866011 9.12767074 71.18964019 5.6796875 79.83984375 C1.95959747 87.2690501 -4.4774456 93.41084295 -12.4453125 96.08984375 C-22.62442427 97.91593663 -32.74475376 97.01038063 -41.64453125 91.484375 C-44.78959615 88.01371968 -45.47967389 85.18280979 -45.64453125 80.484375 C-44.06955146 76.83705337 -42.19746883 74.30885646 -38.64453125 72.484375 C-33.45043669 72.07214527 -30.43537511 72.5189006 -25.64453125 74.484375 C-22.06370096 74.79848292 -19.56814607 74.8975711 -16.26953125 73.421875 C-13.81163411 70.49130533 -13.64453125 68.26348116 -13.64453125 64.484375 C-16.64371254 59.50635244 -20.21274072 58.07834771 -25.39453125 56.109375 C-35.31812123 52.01741453 -41.16562737 47.69255838 -45.734375 37.71875 C-48.79336762 30.20912004 -48.84306435 21.73642915 -46.01953125 14.109375 C-42.21308095 5.99769816 -37.30927832 1.37291211 -29.12109375 -2.40625 C-19.12836973 -5.59493946 -9.47681094 -4.23515413 0 0 Z " fill="#000000" transform="translate(315.64453125,415.515625)"/>
<path d="M0 0 C0.86454803 -0.0127597 1.72909607 -0.02551941 2.61984253 -0.03866577 C4.01675827 -0.04200424 4.01675827 -0.04200424 5.44189453 -0.04541016 C6.4024173 -0.05206696 7.36294006 -0.05872375 8.35256958 -0.06558228 C10.385092 -0.07570951 12.41764768 -0.08039927 14.45019531 -0.08007812 C17.5560608 -0.08444643 20.66049974 -0.12075197 23.76611328 -0.15869141 C25.74136884 -0.16456054 27.71663115 -0.16852929 29.69189453 -0.17041016 C31.08273758 -0.19196671 31.08273758 -0.19196671 32.50167847 -0.21395874 C36.7566292 -0.18389415 39.08097444 -0.09027275 42.77441406 2.18286133 C45.48333274 5.14838186 45.61017572 7.21594294 45.84033203 11.10302734 C45.64173021 14.19238907 44.68718045 15.94814796 42.69970703 18.29052734 C39.17291604 20.64172134 37.67091218 20.50496186 33.51220703 20.41552734 C31.8821875 20.38845703 31.8821875 20.38845703 30.21923828 20.36083984 C28.97207031 20.32603516 28.97207031 20.32603516 27.69970703 20.29052734 C27.71636162 21.68328133 27.71636162 21.68328133 27.73335266 23.10417175 C27.83357869 31.85863934 27.90968426 40.61291397 27.95876789 49.3678236 C27.98485094 53.86875591 28.02022479 58.36921379 28.0769043 62.86987305 C28.13127109 67.21412626 28.1611373 71.55792344 28.17409325 75.90249062 C28.18332484 77.55912772 28.20135249 79.21574013 28.22835732 80.87218285 C28.26471201 83.19471336 28.26965005 85.51536504 28.26733398 87.83813477 C28.29429855 88.86312828 28.29429855 88.86312828 28.32180786 89.90882874 C28.28071588 93.72270635 27.76122691 95.21491421 25.32048035 98.21479797 C21.71623454 101.06946642 19.52266252 101.01061444 15.07861328 100.77880859 C11.3620001 100.01595696 9.81279824 98.35791781 7.69970703 95.29052734 C6.6006197 91.28315642 6.57872254 87.43691849 6.58618164 83.29711914 C6.58603561 82.61363907 6.58588959 81.930159 6.58573914 81.22596741 C6.58643242 78.98052733 6.59419729 76.73517157 6.60205078 74.48974609 C6.60391704 72.92747544 6.60533996 71.36520419 6.6063385 69.80293274 C6.61014731 65.7012265 6.61996357 61.59955596 6.63104248 57.49786377 C6.64129183 53.30831383 6.64584366 49.1187581 6.65087891 44.92919922 C6.66158736 36.71629226 6.67864406 28.50341425 6.69970703 20.29052734 C5.56299561 20.31554321 5.56299561 20.31554321 4.40332031 20.34106445 C2.91421143 20.36052124 2.91421143 20.36052124 1.39501953 20.38037109 C-0.08200439 20.40538696 -0.08200439 20.40538696 -1.58886719 20.4309082 C-4.30029297 20.29052734 -4.30029297 20.29052734 -7.42529297 18.85302734 C-10.11701831 15.17433604 -10.59040718 11.80341502 -10.30029297 7.29052734 C-8.17152074 2.2879126 -5.45816971 0.05475747 0 0 Z " fill="#000000" transform="translate(398.30029296875,286.70947265625)"/>
<path d="M0 0 C3.125 1.875 3.125 1.875 5 5 C5.98876625 10.02622846 5.7769173 13.70513784 3.125 18.125 C-1.29486216 20.7769173 -4.97377154 20.98876625 -10 20 C-13.125 18.125 -13.125 18.125 -15 15 C-15.98876625 9.97377154 -15.7769173 6.29486216 -13.125 1.875 C-8.70513784 -0.7769173 -5.02622846 -0.98876625 0 0 Z " fill="#000000" transform="translate(321,90)"/>
<path d="M0 0 C3.125 1.875 3.125 1.875 5 5 C5.98876625 10.02622846 5.7769173 13.70513784 3.125 18.125 C-1.29486216 20.7769173 -4.97377154 20.98876625 -10 20 C-13.125 18.125 -13.125 18.125 -15 15 C-15.98876625 9.97377154 -15.7769173 6.29486216 -13.125 1.875 C-8.70513784 -0.7769173 -5.02622846 -0.98876625 0 0 Z " fill="#000000" transform="translate(261,90)"/>
<path d="M0 0 C3.125 1.875 3.125 1.875 5 5 C5.98876625 10.02622846 5.7769173 13.70513784 3.125 18.125 C-1.29486216 20.7769173 -4.97377154 20.98876625 -10 20 C-13.125 18.125 -13.125 18.125 -15 15 C-15.98876625 9.97377154 -15.7769173 6.29486216 -13.125 1.875 C-8.70513784 -0.7769173 -5.02622846 -0.98876625 0 0 Z " fill="#000000" transform="translate(201,90)"/>
</svg>
