<?xml version="1.0" encoding="UTF-8"?>
<svg version="1.1" xmlns="http://www.w3.org/2000/svg" width="512" height="512">
<path d="M0 0 C1.05389113 -0.00307895 1.05389113 -0.00307895 2.12907299 -0.0062201 C4.49513298 -0.011897 6.86113489 -0.010432 9.22720051 -0.00901413 C10.93603133 -0.01159737 12.64486155 -0.01461042 14.35369092 -0.01801753 C19.05893416 -0.02609563 23.76416214 -0.02787755 28.46941149 -0.028615 C33.54045785 -0.03046415 38.61149626 -0.0380108 43.68253803 -0.04475021 C54.77552581 -0.05833993 65.86850998 -0.06435928 76.9615047 -0.06876087 C83.88644885 -0.07152228 90.8113916 -0.07575945 97.7363348 -0.08026505 C116.90482178 -0.09245866 136.07330763 -0.10275772 155.2417984 -0.10614014 C156.46895253 -0.1063597 157.69610665 -0.10657927 158.96044727 -0.10680549 C160.19055915 -0.10702377 161.42067103 -0.10724204 162.68805903 -0.10746694 C165.18078657 -0.1079104 167.67351411 -0.10835697 170.16624165 -0.10880661 C172.02096514 -0.10913875 172.02096514 -0.10913875 173.9131578 -0.10947761 C193.94983896 -0.11342585 213.98648377 -0.13088026 234.02315088 -0.15416613 C254.5884181 -0.17787365 275.15366708 -0.19034172 295.71894819 -0.19150805 C307.26802634 -0.19242517 318.81705713 -0.19818653 330.36612225 -0.21632767 C340.20034673 -0.23172056 350.0345092 -0.23685391 359.86874344 -0.22858956 C364.88651819 -0.22468017 369.90416803 -0.22562684 374.92192745 -0.23964691 C379.51691201 -0.25236831 384.11167756 -0.25120375 388.70666174 -0.2390562 C390.36752785 -0.23709615 392.02840939 -0.24019184 393.68925383 -0.24890056 C413.9076989 -0.34819094 413.9076989 -0.34819094 421.30173969 6.19392776 C429.97238578 14.88194888 430.69406009 23.40125716 430.72938251 35.16257095 C430.71966297 37.17888509 430.70942225 39.19519677 430.69871235 41.21150589 C430.70549429 43.3543713 430.71440065 45.49723088 430.72526264 47.6400795 C430.74799365 53.43970686 430.73924501 59.23888788 430.72336721 65.03852272 C430.7106762 71.11837179 430.72245722 77.19818358 430.73029804 83.27803421 C430.73938525 93.48655915 430.72743093 103.694903 430.70359516 113.90340042 C430.67638586 125.69260244 430.68520066 137.48137205 430.71272719 149.2705636 C430.73544358 159.40675628 430.73860591 169.54281907 430.72553384 179.67902899 C430.71775332 185.72671562 430.71665942 191.77419925 430.73321629 197.82187271 C430.74769844 203.50857646 430.73757031 209.19472467 430.708745 214.88136864 C430.70215428 216.9638165 430.70399722 219.0463114 430.71505833 221.12874031 C430.82062708 243.02891488 430.82062708 243.02891488 423.27838802 251.00733566 C417.01789138 256.88201758 410.25098431 259.27879177 401.75095844 259.22908401 C400.7744936 259.22586136 399.79802876 259.2226387 398.79197407 259.21931839 C397.78457172 259.21093948 396.77716938 259.20256058 395.73923969 259.19392776 C394.71250141 259.18941605 393.68576313 259.18490433 392.62791157 259.18025589 C390.10246087 259.16850961 387.57713064 259.15208341 385.05173969 259.13142776 C385.06284275 260.03487427 385.07394581 260.93832077 385.08538532 261.86914444 C385.18561917 270.38815134 385.26172081 278.90695988 385.31080055 287.42642117 C385.33688157 291.80629213 385.3722515 296.18567538 385.42893696 300.56526566 C385.48331132 304.79281079 385.51317149 309.01988719 385.52612591 313.24775505 C385.53535617 314.8597368 385.55338128 316.47169322 385.58038998 318.08347511 C385.61675516 320.3437544 385.62168233 322.60210362 385.61936665 324.86262894 C385.6304697 326.14836304 385.64157276 327.43409714 385.65301228 328.75879288 C384.89288387 333.02247569 383.39339947 334.46715934 380.05173969 337.13142776 C375.74148739 338.63064596 373.14420418 338.05406149 369.04099751 336.21052933 C365.15198421 334.10087803 361.79692011 331.27749389 358.36423969 328.50642776 C356.13500076 326.73015753 353.90555378 324.96013028 351.64074802 323.22932339 C349.05173969 321.13142776 349.05173969 321.13142776 346.81694889 318.83068943 C336.8759051 309.54903911 325.366877 310.83928024 312.44334126 310.91926956 C309.94536823 310.90214428 307.44741866 310.88124598 304.94950581 310.85687637 C298.8893806 310.8087484 292.8305992 310.80274934 286.77041462 310.81851508 C281.83939234 310.83068451 276.90864473 310.82625762 271.97763538 310.81027031 C270.92126484 310.80690241 270.92126484 310.80690241 269.84355347 310.80346647 C268.41243151 310.79887158 266.98130962 310.79425654 265.5501878 310.78962157 C252.15449958 310.74851756 238.75933818 310.76470719 225.36366221 310.79917721 C213.14004142 310.82895304 200.91778435 310.79017994 188.69437388 310.71837463 C176.10995725 310.64501216 163.52617407 310.61642465 150.94154811 310.63633281 C143.88955991 310.64677014 136.83861889 310.64038058 129.78679371 310.58757973 C123.15073814 310.53850394 116.51684652 310.55324519 109.88071156 310.60949516 C107.45569044 310.62050086 105.03047471 310.61137834 102.60563374 310.5798378 C87.40280082 310.39730215 77.79397552 311.99058864 66.59032011 322.69300902 C64.38648389 324.75337537 61.99056389 326.52403587 59.56345844 328.31111526 C57.95517538 329.54261171 56.34710132 330.77438115 54.73923969 332.00642776 C47.99778727 337.16038286 41.2127688 342.24572284 34.36423969 347.25642776 C27.42224428 352.33663764 20.60780295 357.55669366 13.84031391 362.86653519 C7.54615346 367.78804035 1.13859436 372.54386903 -5.31740093 377.25056839 C-6.05281109 377.78746292 -6.78822124 378.32435745 -7.54591656 378.87752151 C-8.62848736 379.66642776 -8.62848736 379.66642776 -9.73292828 380.47127151 C-12.8376779 382.79795186 -15.83787943 385.25143528 -18.8298521 387.72102737 C-22.32170367 390.04584315 -25.81652752 390.564658 -29.94826031 390.13142776 C-33.61852131 388.56961457 -34.72099761 387.47232181 -36.94826031 384.13142776 C-37.18876934 380.99930191 -37.18876934 380.99930191 -37.17531109 377.08967972 C-37.17560314 376.37723099 -37.1758952 375.66478226 -37.1761961 374.93074417 C-37.17480327 372.5769417 -37.1592445 370.22345616 -37.14357281 367.86970901 C-37.13984251 366.23732043 -37.13699561 364.60492961 -37.13499737 362.97253799 C-37.12736225 358.67676483 -37.10771483 354.38112697 -37.08558941 350.08540726 C-37.06512836 345.7016775 -37.0559951 341.31792588 -37.04591656 336.93416214 C-37.0244688 328.3331886 -36.99033435 319.73232502 -36.94826031 311.13142776 C-37.65321636 311.15761185 -38.35817242 311.18379593 -39.08449078 311.21077347 C-42.33051342 311.31578403 -45.57617733 311.38008063 -48.82326031 311.44392776 C-49.93185406 311.4858223 -51.04044781 311.52771683 -52.18263531 311.57088089 C-60.83003685 311.69804856 -67.62371897 310.14355912 -74.0942564 304.14046097 C-80.46972389 297.43570728 -82.40195887 291.10018354 -82.33594036 282.07408524 C-82.3413259 281.18423994 -82.34671144 280.29439464 -82.35226017 279.37758434 C-82.36652281 276.40753179 -82.35944015 273.43792599 -82.35231304 270.46785355 C-82.35801751 268.33366412 -82.36498207 266.19947774 -82.37311077 264.06529617 C-82.39104944 258.27599081 -82.38987232 252.48683696 -82.38416839 246.69751215 C-82.38107733 241.86154937 -82.38716813 237.02561573 -82.39320713 232.18965709 C-82.40725332 220.77910937 -82.40569048 209.36863652 -82.39430523 197.95808792 C-82.3828259 186.19341581 -82.3968965 174.42897171 -82.4237017 162.66432965 C-82.44586683 152.55710881 -82.45249417 142.44995951 -82.44662529 132.3427161 C-82.44325625 126.30900607 -82.44566742 120.27544218 -82.46287632 114.24175262 C-82.47835599 108.56667082 -82.47437823 102.89192643 -82.45557117 97.21685791 C-82.45188806 95.13720895 -82.45498564 93.05753494 -82.46545696 90.97790909 C-82.47868751 88.13246498 -82.46710088 85.28813447 -82.44946575 82.44273758 C-82.45907076 81.62550126 -82.46867576 80.80826494 -82.47857183 79.96626389 C-82.38696896 72.75153496 -80.2578318 66.79631795 -75.51076031 61.31892776 C-74.66513531 60.59705276 -73.81951031 59.87517776 -72.94826031 59.13142776 C-72.12326031 58.40955276 -71.29826031 57.68767776 -70.44826031 56.94392776 C-62.1718933 50.94356168 -51.70943263 51.99625008 -41.94826031 52.06892776 C-40.21382671 52.07569534 -40.21382671 52.07569534 -38.44435406 52.08259964 C-35.61226805 52.09430247 -32.7802922 52.1106978 -29.94826031 52.13142776 C-29.96397076 51.3355928 -29.97968121 50.53975784 -29.99586773 49.71980667 C-30.05876456 46.0654212 -30.09742406 42.41115016 -30.13576031 38.75642776 C-30.16089703 37.50474808 -30.18603374 36.25306839 -30.21193218 34.96345901 C-30.30078056 23.65009946 -29.13315836 15.3775646 -21.13966656 7.04549026 C-14.77193071 1.48365325 -8.28895006 0.00823756 0 0 Z M-8.94826031 26.13142776 C-9.4406106 29.1315669 -9.6256076 31.56205667 -9.58317852 34.55757523 C-9.59097847 35.40361486 -9.59877843 36.24965449 -9.60681474 37.12133169 C-9.62675261 39.95521863 -9.6109634 42.78776533 -9.59523296 45.62166214 C-9.60200829 47.65367797 -9.61091093 49.68568766 -9.62178326 51.7176857 C-9.64459313 57.23629728 -9.63573309 62.75444192 -9.61988783 68.27306175 C-9.60723769 74.04564685 -9.61896648 79.8181917 -9.62681866 85.59077835 C-9.63591778 95.28522808 -9.62392031 104.97948741 -9.60011578 114.67390823 C-9.57290414 125.88541913 -9.5817181 137.09647542 -9.6092478 148.30797529 C-9.63193028 157.93019489 -9.63514313 167.55227755 -9.62205446 177.17451525 C-9.61425526 182.9231019 -9.61323139 188.6714748 -9.6297369 194.42004776 C-9.64416972 199.82433437 -9.63418122 205.2280343 -9.60526562 210.63225746 C-9.59864851 212.61682218 -9.6005631 214.60143619 -9.61157894 216.58598137 C-9.62522131 219.29308311 -9.60813518 221.99829911 -9.58317852 224.7052803 C-9.59433213 225.4927318 -9.60548574 226.28018329 -9.61697733 227.09149694 C-9.54553581 231.07997858 -9.10102931 232.93514892 -6.62201023 236.12021255 C-3.0987893 238.77040637 -0.95851499 238.73975909 3.42478657 238.71150589 C4.14900303 238.71395813 4.87321949 238.71641037 5.6193819 238.71893692 C7.18536396 238.72110304 8.75139482 238.71187301 10.31725788 238.69244766 C12.79792119 238.66234488 15.27686258 238.66342052 17.75767231 238.67256546 C23.02258023 238.68647445 28.28692487 238.66175214 33.55173969 238.63142776 C39.6542092 238.59627865 45.75584268 238.57705648 51.85839558 238.59955215 C54.29903093 238.60016918 56.73815171 238.5710042 59.17857075 238.54072952 C60.67861418 238.54280444 62.17865655 238.54627043 63.67869282 238.55134964 C65.63796711 238.53872086 65.63796711 238.53872086 67.6368227 238.52583694 C71.91719659 239.28490521 73.37940135 240.77762509 76.05173969 244.13142776 C76.88973815 247.21796867 76.69991877 250.00732138 76.05173969 253.13142776 C74.17553356 255.63303594 72.81282666 256.75088428 70.05173969 258.13142776 C67.70529074 258.2391743 65.35570763 258.28036911 63.00681782 258.29256058 C62.28131733 258.29752548 61.55581684 258.30249039 60.80833149 258.30760574 C58.39987463 258.32224807 55.99148382 258.32903584 53.58298969 258.33455276 C51.90586566 258.34030634 50.22874163 258.34606405 48.55161762 258.35182571 C45.02756665 258.3623442 41.50353853 258.36818005 37.97947407 258.37166214 C33.48516116 258.37712229 28.99115499 258.40109312 24.49693775 258.42963409 C21.0274391 258.44835986 17.5580125 258.45347152 14.0884676 258.45499802 C12.43322813 258.4580071 10.77798939 258.46597605 9.12279987 258.4791832 C-2.59524725 258.56594247 -13.33669243 258.61998152 -22.25685406 250.09627151 C-27.82900783 243.62330767 -29.06114991 236.73993049 -29.10647869 228.3800087 C-29.11388566 227.38129729 -29.11388566 227.38129729 -29.12144226 226.36240989 C-29.13675776 224.13917803 -29.14516166 221.91597492 -29.15358257 219.69270706 C-29.16316578 218.09592818 -29.17317612 216.49915182 -29.18358135 214.90237808 C-29.21058853 210.57224985 -29.23162074 206.24211077 -29.25158334 201.9119451 C-29.27346874 197.38489164 -29.30084493 192.85787147 -29.32763958 188.33084488 C-29.37753193 179.76036553 -29.42248358 171.18986767 -29.46566194 162.61935216 C-29.51506387 152.86123787 -29.56997104 143.10315698 -29.62534153 133.34507501 C-29.7391085 113.2738904 -29.84595904 93.20267388 -29.94826031 73.13142776 C-34.01062433 73.0441373 -38.0727462 72.99093785 -42.13576031 72.94392776 C-43.28624859 72.91879105 -44.43673687 72.89365433 -45.62208843 72.86775589 C-46.73390484 72.85808792 -47.84572124 72.84841995 -48.99122906 72.83845901 C-50.01240826 72.82274857 -51.03358746 72.80703812 -52.08571148 72.79085159 C-55.46122418 73.19245843 -57.26164947 74.0661703 -59.94826031 76.13142776 C-62.70626699 79.70036768 -62.22706335 83.97234054 -62.20222759 88.28546524 C-62.20534757 89.11431624 -62.20846756 89.94316724 -62.21168208 90.79713494 C-62.21966852 93.5784784 -62.21333589 96.3596041 -62.20704937 99.14094925 C-62.20975896 101.13340254 -62.21331972 103.12585482 -62.21766949 105.11830521 C-62.22680008 110.53354552 -62.2232463 115.94870977 -62.21691132 121.36395144 C-62.21185411 127.02709203 -62.21654206 132.69022602 -62.21968365 138.35336685 C-62.2233244 147.86541795 -62.21852163 157.37743802 -62.20900249 166.88948441 C-62.19812087 177.89010273 -62.20164098 188.8906469 -62.21265531 199.89126343 C-62.22172879 209.33084099 -62.22301306 218.77039622 -62.21777797 228.20997673 C-62.21465821 233.85008558 -62.21424905 239.49015957 -62.22085094 245.13026619 C-62.22662453 250.43340274 -62.2226272 255.73644364 -62.21106243 261.03956985 C-62.20841579 262.98705321 -62.209181 264.9345446 -62.21358776 266.88202477 C-62.21904451 269.53826108 -62.21220741 272.19418997 -62.20222759 274.85040665 C-62.20668904 275.62297646 -62.21115048 276.39554628 -62.21574712 277.19152731 C-62.17727388 282.46306186 -61.75207491 286.32761317 -57.94826031 290.13142776 C-55.51308629 290.34037728 -53.18235751 290.43249179 -50.74513531 290.44002151 C-49.2750795 290.46519569 -47.80502751 290.49059349 -46.33497906 290.51619339 C-44.02004898 290.54485443 -41.70518569 290.56887136 -39.39015484 290.58772659 C-37.15395171 290.60950002 -34.91855568 290.6489617 -32.68263531 290.69002151 C-31.65574596 290.69019524 -31.65574596 290.69019524 -30.60811138 290.69037247 C-26.01729389 290.78403736 -22.73155308 291.48557043 -18.94826031 294.13142776 C-17.26239843 298.17374492 -16.68750491 301.68808284 -16.62941265 306.04500198 C-16.60954296 307.18573166 -16.58967327 308.32646133 -16.56920147 309.50175858 C-16.55765026 310.71759628 -16.54609905 311.93343399 -16.53419781 313.18611526 C-16.51483166 314.44280014 -16.49546551 315.69948502 -16.4755125 316.99425125 C-16.42598306 320.31830464 -16.38466133 323.64225114 -16.34736919 326.96644974 C-16.30720096 330.36529207 -16.25616744 333.76396981 -16.20607281 337.16267776 C-16.11016116 343.81882159 -16.02507401 350.47503763 -15.94826031 357.13142776 C-13.13778099 355.7565737 -10.65768783 354.29782525 -8.13966656 352.43611526 C-7.40369244 351.89350052 -6.66771832 351.35088577 -5.90944195 350.79182816 C-5.11787701 350.20264603 -4.32631207 349.6134639 -3.51076031 349.00642776 C-2.67601177 348.38824173 -1.84126324 347.77005569 -0.98121929 347.13313675 C6.10488646 341.87009454 13.12947958 336.52746063 20.1413393 331.16609573 C26.89638222 326.00219104 33.6880555 320.88951192 40.50120258 315.80257034 C44.94566825 312.47901697 49.36689983 309.12856498 53.76267719 305.74080276 C55.18193501 304.64928909 55.18193501 304.64928909 56.62986469 303.53572464 C58.448291 302.13507924 60.26357918 300.7303469 62.07517719 299.32088089 C62.90017719 298.68601761 63.72517719 298.05115433 64.57517719 297.39705276 C65.6567812 296.55835648 65.6567812 296.55835648 66.76023579 295.70271683 C72.86274958 291.51821024 77.39686729 290.69332508 84.61884785 290.73270035 C85.5754421 290.72605352 86.53203635 290.71940669 87.5176183 290.71255845 C90.71904204 290.69392427 93.92009217 290.69653407 97.12156391 290.69905472 C99.41799161 290.69003784 101.71441448 290.6797108 104.01083088 290.66817093 C110.24376054 290.64056629 116.47659897 290.63131165 122.70958185 290.62531686 C129.22390936 290.61594227 135.73816848 290.58973959 142.2524538 290.56531143 C153.18586436 290.52658296 164.11925668 290.49824046 175.05271626 290.47786331 C186.31283419 290.45684888 197.57290829 290.42956975 208.83298969 290.39387894 C209.52738332 290.39168011 210.22177695 290.38948129 210.93721281 290.38721583 C214.42087794 290.37614606 217.90454266 290.36495328 221.3882072 290.35369933 C250.27601077 290.26053661 279.16384441 290.1891498 308.05173969 290.13142776 C305.47257174 287.5169023 302.93659143 285.18654545 299.96189594 283.02986526 C299.18338276 282.46179153 298.40486958 281.8937178 297.60276508 281.30842972 C296.37094501 280.41643875 296.37094501 280.41643875 295.11423969 279.50642776 C288.20961977 274.46624641 281.3724206 269.35933538 274.61814594 264.11970901 C273.34777485 263.1355098 273.34777485 263.1355098 272.05173969 262.13142776 C271.43729716 261.60322685 270.82285463 261.07502594 270.18979263 260.53081894 C267.65367989 258.87089101 266.28350883 258.75546755 263.2764864 258.75288773 C262.31899998 258.74468506 261.36151356 258.73648239 260.3750124 258.72803116 C258.8093906 258.73725349 258.8093906 258.73725349 257.21214008 258.74666214 C256.1076804 258.74128937 255.00322071 258.7359166 253.86529255 258.73038101 C251.4666497 258.72059551 249.06797141 258.71766118 246.66931057 258.72073746 C242.8742868 258.72520734 239.07973134 258.71123817 235.28475666 258.69234085 C227.22791681 258.65552063 219.17114626 258.6416889 211.11423969 258.63142776 C201.78241998 258.61953921 192.45085178 258.5978709 183.1191206 258.55142593 C179.3782322 258.53782802 175.63762919 258.54203187 171.89672565 258.54683304 C169.60472465 258.53749385 167.31272683 258.52732539 165.02073383 258.51619339 C163.9790102 258.52234161 162.93728657 258.52848984 161.86399555 258.53482437 C153.05110255 258.45954711 153.05110255 258.45954711 149.05173969 255.13142776 C146.50729052 252.00869469 146.96934614 248.94083014 147.27439594 245.13142776 C148.53507342 241.88787567 150.05657019 240.94409838 153.05173969 239.13142776 C156.86419759 238.48149628 160.65609653 238.48205357 164.51707172 238.45515823 C165.6772179 238.43208603 166.83736408 238.40901382 168.03266621 238.38524246 C171.87501668 238.31658038 175.71672245 238.27960073 179.55955219 238.24861526 C180.87722458 238.23480946 182.19489697 238.22100365 183.55249882 238.20677948 C189.81822754 238.14132689 196.08375715 238.09355961 202.34978116 238.06915176 C209.53592936 238.04078365 216.71810041 237.95354212 223.90293324 237.81414878 C229.48380274 237.7096917 235.06355954 237.66073666 240.64538944 237.6515075 C243.96674313 237.64478163 247.28092808 237.60920244 250.60179234 237.52894592 C268.14212519 237.13331221 278.98407791 239.22981208 292.0456171 251.32416439 C295.32893359 254.28201834 298.8797921 256.87635358 302.42673969 259.50642776 C303.82361893 260.57667863 305.21973054 261.64793433 306.61423969 262.72127151 C319.9039625 272.93744606 333.24613687 283.0697691 346.76658344 292.97908401 C351.54890197 296.48682688 356.27926186 300.06098066 360.99705219 303.65486526 C362.76538105 305.22868984 362.76538105 305.22868984 364.05173969 305.13142776 C364.05760593 304.4328717 364.06347218 303.73431564 364.06951618 303.01459122 C364.12758673 296.40900735 364.19974471 289.80374196 364.28745461 283.19848156 C364.33205041 279.80318927 364.37132943 276.40801398 364.39817524 273.01253128 C364.42932651 269.10268791 364.48411146 265.19334225 364.54002094 261.28377151 C364.54641087 260.07309509 364.55280079 258.86241867 364.55938435 257.61505508 C364.66699738 251.41376831 364.86144289 246.5329611 368.05173969 241.13142776 C371.63878429 238.7400647 374.27691832 238.81921181 378.42283344 238.78767776 C379.14157139 238.77305496 379.86030933 238.75843216 380.60082722 238.74336624 C382.89690842 238.69689613 385.19290399 238.66268351 387.48923969 238.63142776 C390.50908847 238.59022928 393.52833433 238.53652814 396.54783344 238.47517776 C397.58550106 238.46726212 397.58550106 238.46726212 398.64413166 238.45918655 C403.69551436 238.38197111 403.69551436 238.38197111 408.05173969 236.13142776 C410.32951809 231.80726741 410.33582825 227.63724734 410.3124361 222.8638649 C410.31626165 222.03486504 410.3200872 221.20586518 410.32402867 220.35174412 C410.3343417 217.57584812 410.33036975 214.80015963 410.3263979 212.02425003 C410.33074529 210.03327111 410.33592853 208.04229387 410.34188557 206.05131912 C410.35528344 200.64434115 410.35585338 195.23743305 410.35332227 189.83044171 C410.35225315 185.31739454 410.35713439 180.80436154 410.36192769 176.2913174 C410.37302549 165.64515527 410.37345866 154.99902843 410.36741352 144.35286331 C410.36137176 133.36755639 410.37368929 122.38237748 410.39498359 111.3970924 C410.41259189 101.96681894 410.41860219 92.53658626 410.41534585 83.10629696 C410.41353171 77.47341395 410.41618233 71.84062227 410.43006039 66.20775414 C410.4426216 60.91113511 410.44071073 55.61471588 410.4276495 50.31809998 C410.4252805 48.37425863 410.42802996 46.4304033 410.43627262 44.48657799 C410.4467143 41.83281078 410.43866022 39.17971717 410.42596149 36.52597427 C410.43333578 35.75699942 410.44071006 34.98802456 410.44830781 34.19574744 C410.40050306 29.44619888 409.59223566 26.1569832 407.05173969 22.13142776 C404.16115577 20.6861358 401.66359682 21.00049215 398.43210602 20.99441338 C397.74075147 20.99176155 397.04939693 20.98910972 396.33709225 20.98637754 C393.99726626 20.97865713 391.65749251 20.97812432 389.31765461 20.97752762 C387.63244758 20.97351481 385.94724151 20.96907689 384.26203662 20.96424806 C379.6129654 20.95225664 374.96390456 20.94662819 370.31482089 20.94206691 C365.30789005 20.93612061 360.3009717 20.92450844 355.29404926 20.9137764 C343.19390643 20.88923143 331.09375946 20.87462289 318.99359939 20.86171633 C315.578086 20.85800615 312.16257303 20.85403279 308.74706006 20.84996367 C287.55324536 20.82473073 266.35943005 20.80266993 245.16560364 20.79023552 C240.25435795 20.78730565 235.34311228 20.78434401 230.43186665 20.78133011 C229.21114776 20.78058406 227.99042887 20.77983801 226.7327185 20.77906935 C206.94537537 20.76640812 187.15812195 20.73317584 167.37082078 20.69152828 C147.07231996 20.64915365 126.77386512 20.62554573 106.47532016 20.62031496 C95.07161619 20.61689593 83.66805244 20.60508287 72.2643919 20.57221222 C62.55514251 20.54427205 52.84606206 20.53318582 43.13677558 20.54440768 C38.18018003 20.54960967 33.22393863 20.54660795 28.26739407 20.52194214 C23.73285899 20.49956408 19.19893478 20.50009972 14.66438983 20.51914601 C13.02102538 20.52196217 11.37762051 20.51625848 9.73432144 20.50133307 C7.50509614 20.48231846 5.27806984 20.49394992 3.04889679 20.51339531 C1.80943462 20.51203878 0.56997244 20.51068225 -0.70704919 20.50928462 C-4.8817678 21.31061242 -6.36669774 22.81420788 -8.94826031 26.13142776 Z " fill="#000000" transform="translate(81.94826030731201,60.86857223510742)"/>
<path d="M0 0 C14.69614633 13.60430782 22.13289274 31.46271882 23.03125 51.40625 C22.91612907 64.64515708 20.64710057 78.72782198 13.625 90.1875 C11.7983388 92.73667903 11.7983388 92.73667903 12.1484375 94.90966797 C13.2732974 97.67086364 14.86208255 99.18345726 17 101.2578125 C17.804375 102.04800781 18.60875 102.83820313 19.4375 103.65234375 C20.283125 104.46832031 21.12875 105.28429687 22 106.125 C23.66873158 107.75048701 25.33550152 109.37799107 27 111.0078125 C27.7425 111.72598145 28.485 112.44415039 29.25 113.18408203 C32.16069015 116.20441034 32.40836473 118.7147515 32.33984375 122.89453125 C31.70439083 126.83141771 29.99827129 128.38448674 27 131 C23.21965037 132.1684717 21.04976685 132.374371 17.31640625 131.04296875 C11.71373585 127.5916182 7.56221482 122.59881316 3.1015625 117.80859375 C2.37453125 117.05191406 1.6475 116.29523438 0.8984375 115.515625 C0.24536621 114.81727539 -0.40770508 114.11892578 -1.08056641 113.39941406 C-2.88749378 111.75706254 -2.88749378 111.75706254 -5.08154297 112.19873047 C-7.64657764 113.2700519 -10.05437747 114.55357492 -12.5 115.875 C-26.93450506 123.12711849 -42.34514722 124.34736105 -57.69921875 119.3046875 C-73.23810326 113.16269055 -86.13074375 101.33383159 -93 86 C-100.71188006 66.40860718 -102.56954991 43.84151721 -94.20263672 24.12060547 C-86.81761816 7.54088356 -74.37226977 -5.38970246 -57.25390625 -11.9921875 C-36.65058066 -18.37352964 -16.32728533 -13.97769067 0 0 Z M-63.48046875 16.1953125 C-75.43617485 28.65167631 -78.64664063 42.40313267 -78.3125 59.0703125 C-77.73353751 71.77371438 -71.50152299 83.46742117 -62.3515625 92.17578125 C-53.49059225 99.04965684 -44.08442647 102.08558816 -33 101 C-28.48672526 99.74631257 -24.18936392 98.09468196 -20 96 C-21.41920753 92.75904935 -23.13308248 90.64164495 -25.66015625 88.1796875 C-26.37107422 87.47972656 -27.08199219 86.77976562 -27.81445312 86.05859375 C-28.55630859 85.33800781 -29.29816406 84.61742187 -30.0625 83.875 C-31.53473193 82.43712439 -33.00489156 80.99712292 -34.47265625 79.5546875 C-35.12500244 78.92030762 -35.77734863 78.28592773 -36.44946289 77.63232422 C-38.75125378 75.20911939 -38.99081265 74.09738595 -39.3125 70.6875 C-38.95124058 66.42463889 -37.98007946 64.98007946 -35 62 C-31.89046621 60.4452331 -29.43733239 60.71355563 -26 61 C-20.75524538 63.96217831 -16.80473725 67.95682521 -12.625 72.25 C-11.98433594 72.8996875 -11.34367187 73.549375 -10.68359375 74.21875 C-9.11770636 75.80800885 -7.55671491 77.40176417 -6 79 C-0.02101285 73.38665641 1.57378537 63.85860421 2.03125 55.91015625 C1.86929425 40.82802677 -2.48492444 27.94506006 -13 17 C-27.9393703 3.30065648 -48.04158878 2.5312959 -63.48046875 16.1953125 Z " fill="#000000" transform="translate(426,128)"/>
<path d="M0 0 C5.29380606 4.14112248 7.31869933 9.47579318 9.875 15.5625 C10.34421875 16.65401367 10.8134375 17.74552734 11.296875 18.87011719 C12.88116519 22.5732929 14.44408497 26.28484412 16 30 C16.27283813 30.65047302 16.54567627 31.30094604 16.82678223 31.97113037 C19.51841453 38.39016581 22.19832384 44.81404351 24.86401367 51.24389648 C31.05535485 66.17587345 37.34905499 81.06405763 43.65429688 95.94824219 C44.04651932 96.87512848 44.43874176 97.80201477 44.84284973 98.75698853 C45.57204121 100.48015146 46.30202127 102.20298102 47.03300476 103.92538452 C47.69514806 105.49051984 48.35363741 107.0572069 49.00814819 108.62554932 C49.70868976 110.30261577 50.41915125 111.97555497 51.1366272 113.64544678 C51.50315399 114.5189679 51.86968079 115.39248901 52.24731445 116.29248047 C52.58156937 117.07783173 52.91582428 117.86318298 53.26020813 118.67233276 C54.50013526 122.57361617 54.35155489 126.14964013 53 130 C50.45870595 132.90433605 48.68172578 133.80116331 45 134.875 C41.60515287 135.01645196 39.93519164 134.69932147 37 133 C33.49051326 129.17884459 31.4947775 125.0410507 29.546875 120.29296875 C29.27568848 119.64928345 29.00450195 119.00559814 28.72509766 118.34240723 C27.72460384 115.9611141 26.73810216 113.5739616 25.75 111.1875 C23.5225 105.845625 21.295 100.50375 19 95 C3.16 94.67 -12.68 94.34 -29 94 C-29.99 96.97 -30.98 99.94 -32 103 C-33.70082309 107.45494116 -35.53748706 111.84990144 -37.375 116.25 C-37.84421875 117.40757812 -38.3134375 118.56515625 -38.796875 119.7578125 C-43.27453943 130.46957326 -43.27453943 130.46957326 -48 134 C-52.01147822 135.16697548 -54.25707191 135.22859326 -58.25 134 C-61.91010245 131.33810731 -62.85464107 129.36668093 -64 125 C-62.83990725 118.97528638 -60.73804856 113.57424316 -58.31640625 107.95703125 C-57.94900833 107.09152649 -57.58161041 106.22602173 -57.20307922 105.33428955 C-55.99491533 102.49137679 -54.7786473 99.65200558 -53.5625 96.8125 C-52.71241931 94.81529255 -51.86298324 92.81781062 -51.01416016 90.82006836 C-49.24296448 86.65303534 -47.46897705 82.48720802 -45.69287109 78.32226562 C-41.8021947 69.1940659 -37.9393205 60.05413601 -34.07931519 50.91293335 C-32.91583564 48.15915182 -31.75023454 45.40627699 -30.58422852 42.65356445 C-30.21590408 41.78245529 -29.84757965 40.91134613 -29.46809387 40.01383972 C-28.7404592 38.29295735 -28.01162877 36.57258004 -27.28153992 34.85273743 C-25.33536326 30.24789622 -23.44803349 25.62609743 -21.62207031 20.97216797 C-21.22649933 19.97390488 -20.83092834 18.97564178 -20.42337036 17.9471283 C-19.66708755 16.0323227 -18.92121767 14.11335905 -18.18771362 12.18971252 C-16.1513466 7.05451187 -14.34757247 3.47919769 -10 0 C-6.1544104 -1.2818632 -3.93271581 -0.94927623 0 0 Z M-5 38 C-8.95186606 45.52077874 -12.21025388 53.22122164 -15.3125 61.125 C-16.859375 65.04375 -18.40625 68.9625 -20 73 C-10.1 73 -0.2 73 10 73 C8.20868163 67.6260449 6.50412066 62.59200014 4.30078125 57.43359375 C3.81416016 56.28955078 3.32753906 55.14550781 2.82617188 53.96679688 C2.0769043 52.21979492 2.0769043 52.21979492 1.3125 50.4375 C0.80138672 49.23802734 0.29027344 48.03855469 -0.23632812 46.80273438 C-1.48775802 43.86713715 -2.74238293 40.93295065 -4 38 C-4.33 38 -4.66 38 -5 38 Z " fill="#000000" transform="translate(262,122)"/>
<path d="M0 0 C0.66408875 -0.00525696 1.32817749 -0.01051392 2.01239014 -0.01593018 C4.19673536 -0.02907986 6.38034527 -0.02040962 8.56469727 -0.01025391 C10.09017577 -0.01227634 11.61565333 -0.0151892 13.14112854 -0.01895142 C16.33457669 -0.02336814 19.52777264 -0.01696584 22.72119141 -0.00292969 C26.80447479 0.01414752 30.88716592 0.00432656 34.97042751 -0.01364708 C38.11982136 -0.02451511 41.26907604 -0.02102455 44.4184742 -0.0132637 C45.92349379 -0.01126927 47.42852621 -0.01369428 48.93353081 -0.02070236 C51.04196238 -0.02836536 53.14945074 -0.01664597 55.2578125 0 C56.45518539 0.00238678 57.65255829 0.00477356 58.88621521 0.00723267 C62.61629086 0.43686948 65.00951444 1.42055442 68.19360352 3.38818359 C70.87266081 7.40676954 70.88971045 10.66460081 70.19360352 15.38818359 C68.39966684 18.25848228 67.21097075 19.87949998 64.19360352 21.38818359 C62.34503272 21.47919972 60.49313972 21.50571506 58.64233398 21.50170898 C57.48128143 21.50163345 56.32022888 21.50155792 55.12399292 21.5014801 C53.86563629 21.49631882 52.60727966 21.49115753 51.31079102 21.48583984 C50.02625031 21.4844249 48.74170959 21.48300995 47.41824341 21.48155212 C44.0020351 21.4777327 40.58586926 21.46790733 37.16967773 21.45684814 C33.68416936 21.44662166 30.19865393 21.44199709 26.71313477 21.43701172 C19.8732535 21.42681512 13.03348888 21.4072421 6.19360352 21.38818359 C6.19360352 31.94818359 6.19360352 42.50818359 6.19360352 53.38818359 C12.3869043 53.31857422 12.3869043 53.31857422 18.70532227 53.24755859 C22.00382249 53.22182282 25.30229423 53.20013596 28.60083771 53.18118286 C32.07947537 53.16008633 35.55772127 53.13190994 39.03613281 53.08642578 C43.03006721 53.0345292 47.02358867 53.01521586 51.01782227 52.99755859 C52.88213142 52.96659088 52.88213142 52.96659088 54.78410339 52.93499756 C55.94492935 52.93469543 57.10575531 52.93439331 58.30175781 52.93408203 C59.83064888 52.92075836 59.83064888 52.92075836 61.39042664 52.90716553 C64.94502186 53.51712508 66.61303173 54.92244306 69.19360352 57.38818359 C70.93260184 60.86618024 70.78339388 64.59386559 70.19360352 68.38818359 C67.51999795 71.95299102 65.52837144 73.62563741 61.19360352 74.38818359 C59.36091004 74.47397068 57.52536919 74.505917 55.69067383 74.50170898 C54.58983459 74.50163345 53.48899536 74.50155792 52.35479736 74.5014801 C51.17238464 74.49631882 49.98997192 74.49115753 48.77172852 74.48583984 C47.55660583 74.4844249 46.34148315 74.48300995 45.08953857 74.48155212 C41.20753521 74.47595347 37.32558946 74.46340119 33.44360352 74.45068359 C30.81209393 74.44566842 28.18058344 74.44110554 25.54907227 74.43701172 C19.09722968 74.42598448 12.64542072 74.40924767 6.19360352 74.38818359 C6.20470657 75.10148834 6.21580963 75.81479309 6.22724915 76.54971313 C6.32763377 83.28771652 6.40366029 90.0255098 6.45266438 96.7640934 C6.47870578 100.22814584 6.51400043 103.69157797 6.57080078 107.15527344 C6.63576038 111.14168753 6.65982938 115.12785465 6.68188477 119.11474609 C6.70769119 120.35245758 6.73349762 121.59016907 6.76008606 122.86538696 C6.76321099 132.47008267 6.76321099 132.47008267 3.87792969 136.15136719 C0.4993003 138.96673803 -1.42299396 139.46508539 -5.80639648 139.38818359 C-10.62531272 137.7200972 -12.55882932 135.89373762 -14.80639648 131.38818359 C-15.18391991 128.86597443 -15.18391991 128.86597443 -15.18734741 126.15100098 C-15.19580688 125.11641251 -15.20426636 124.08182404 -15.21298218 123.0158844 C-15.20690948 121.89157516 -15.20083679 120.76726593 -15.19458008 119.60888672 C-15.19983704 118.41649887 -15.20509399 117.22411102 -15.21051025 115.99559021 C-15.22143897 112.73313402 -15.21889518 109.47104395 -15.209373 106.20859337 C-15.20176414 102.79029969 -15.20882541 99.37203002 -15.21353149 95.95373535 C-15.21898549 90.21390407 -15.21180685 84.47418868 -15.19750977 78.734375 C-15.18118383 72.10357706 -15.1864726 65.47305588 -15.20298898 58.84226465 C-15.21661406 53.14359501 -15.21851855 47.44500855 -15.21067297 41.74632788 C-15.20600204 38.34520781 -15.20535554 34.94421773 -15.21528244 31.54310608 C-15.22289227 27.75103994 -15.21129823 23.95950686 -15.19458008 20.16748047 C-15.20065277 19.04317123 -15.20672546 17.918862 -15.21298218 16.76048279 C-15.20452271 15.72589432 -15.19606323 14.69130585 -15.18734741 13.62536621 C-15.18621634 12.72942497 -15.18508526 11.83348373 -15.18391991 10.91039276 C-14.56774138 6.79374453 -12.77615014 4.15479456 -9.54429626 1.59994507 C-6.18194625 0.11180944 -3.67506277 0.00733055 0 0 Z " fill="#000000" transform="translate(124.806396484375,120.61181640625)"/>
<path d="M0 0 C2.8100346 1.79363911 4.50940468 3.01880935 6 6 C6.42071592 9.05920574 6.48514117 11.9467746 6 15 C3.81840855 17.75569447 2.12822506 19.43588747 -1 21 C-4.86889612 21.43964729 -6.75665494 21.12635224 -10.25 19.3125 C-13.19315887 16.83757095 -14.21976035 15.72781164 -15 12 C-15 7.3945905 -14.48937063 5.56098585 -11.4375 2.0625 C-7.57749595 -0.73971448 -4.66116501 -0.66588072 0 0 Z " fill="#000000" transform="translate(198,299)"/>
</svg>
