<?xml version="1.0" encoding="UTF-8"?>
<svg version="1.1" xmlns="http://www.w3.org/2000/svg" width="512" height="512">
<path d="M0 0 C13.16598394 11.49993664 13.16598394 11.49993664 16.57421875 18.31640625 C17.44008102 18.31783127 18.3059433 18.31925629 19.19804382 18.32072449 C27.36421555 18.33856545 35.52984597 18.38021114 43.69575787 18.44849682 C47.89384267 18.48276543 52.09156363 18.50787652 56.28979492 18.51196289 C60.34258627 18.51624624 64.39455689 18.54471071 68.44709206 18.58983803 C69.991964 18.60281208 71.53693418 18.60712099 73.08185387 18.60256004 C75.24907037 18.59765275 77.41388916 18.62374464 79.58081055 18.65698242 C81.42946968 18.66697517 81.42946968 18.66697517 83.31547546 18.6771698 C87.48747892 19.49555175 88.98392634 21.00587544 91.57421875 24.31640625 C92.13671875 27.87890625 92.13671875 27.87890625 91.57421875 31.31640625 C89.42587053 34.17133366 88.26123641 35.20137053 84.70147705 35.79742432 C83.59117126 35.78854187 82.48086548 35.77965942 81.33691406 35.77050781 C80.07590881 35.77020569 78.81490356 35.76990356 77.51568604 35.76959229 C76.14456549 35.7491673 74.77345142 35.72830334 73.40234375 35.70703125 C71.99559331 35.69956742 70.58883244 35.69387515 69.18206787 35.68988037 C65.48613593 35.67463485 61.79083648 35.63536356 58.09515381 35.59106445 C54.3213354 35.55008768 50.54741443 35.53186429 46.7734375 35.51171875 C39.37341011 35.46886724 31.97390318 35.4006303 24.57421875 35.31640625 C24.78280518 36.00057617 24.9913916 36.68474609 25.20629883 37.38964844 C25.47853271 38.28844727 25.7507666 39.18724609 26.03125 40.11328125 C26.30171143 41.00370117 26.57217285 41.89412109 26.85083008 42.81152344 C31.97479358 60.55430626 27.74255554 80.30587497 19.01171875 96.15234375 C14.25674181 104.01126398 8.48099359 111.39276531 1.19921875 117.06640625 C-2.69156415 120.40136302 -4.12691929 123.09456377 -4.8125 128.19140625 C-5.28479374 133.94058224 -5.28479374 133.94058224 -3.1484375 139.0625 C-1.34944403 140.51571857 -1.34944403 140.51571857 1.57421875 142.31640625 C4.63105976 146.9914256 3.90346051 152.30725783 3.88671875 157.69140625 C3.90283203 158.72007812 3.91894531 159.74875 3.93554688 160.80859375 C3.939125 166.36184746 3.83125871 170.58721474 0.57421875 175.31640625 C-4.47841283 179.31640625 -4.47841283 179.31640625 -8.42578125 179.31640625 C-8.39097656 180.10144531 -8.35617187 180.88648438 -8.3203125 181.6953125 C-8.08224144 190.93473704 -9.6149228 196.8934041 -15.87890625 203.80859375 C-20.78039849 208.58631094 -25.56470485 209.45760954 -32.17578125 209.37890625 C-33.160625 209.36988281 -34.14546875 209.36085938 -35.16015625 209.3515625 C-35.9078125 209.33996094 -36.65546875 209.32835937 -37.42578125 209.31640625 C-37.34190207 228.00539318 -37.24677636 246.69429057 -37.13825417 265.38315105 C-37.08812801 274.06067326 -37.04168507 282.73818602 -37.00390625 291.41577148 C-36.97096969 298.97897181 -36.93112924 306.54209882 -36.88299119 314.10521823 C-36.85774276 318.10998996 -36.83595658 322.11471315 -36.82243729 326.11954308 C-36.8096019 329.88946817 -36.78753161 333.6592267 -36.75839806 337.42905998 C-36.74933382 338.81212818 -36.74363473 340.19522319 -36.74156761 341.57831955 C-36.7382371 343.46836329 -36.72156923 345.35836943 -36.70425415 347.24833679 C-36.69872339 348.30563334 -36.69319263 349.3629299 -36.68749428 350.45226574 C-36.40194005 353.57732002 -36.05499266 355.6213512 -34.42578125 358.31640625 C-30.00891788 360.47706734 -25.66499596 360.60175771 -20.83520508 360.57037354 C-19.71905555 360.57505351 -19.71905555 360.57505351 -18.58035755 360.57982802 C-16.09776092 360.58777781 -13.61541077 360.58149624 -11.1328125 360.57519531 C-9.3485805 360.57790652 -7.56434962 360.58146818 -5.78012085 360.58581543 C-0.94135667 360.59492629 3.89732214 360.59140053 8.7360878 360.58505726 C13.80216958 360.57999054 18.8682441 360.58469058 23.93432617 360.58782959 C32.44158235 360.59146727 40.94880379 360.58667532 49.45605469 360.57714844 C59.2888133 360.56626428 69.12148897 360.56978999 78.95424557 360.58080125 C87.39940825 360.58987975 95.84454597 360.59115664 104.28971195 360.58592391 C109.3323458 360.58280732 114.37494068 360.58238636 119.41757202 360.58899689 C124.15851089 360.59477788 128.8993429 360.59075959 133.64027023 360.57920837 C135.37931516 360.57656583 137.1183691 360.57731995 138.85741043 360.5817337 C141.2329422 360.58720662 143.60813251 360.58033396 145.98364258 360.57037354 C146.6702254 360.57483498 147.35680822 360.57929642 148.06419659 360.58389306 C152.25890301 360.5498279 155.78423644 360.17040684 159.57421875 358.31640625 C161.39521514 354.7678286 161.82453044 351.82928399 161.82590103 347.87374878 C161.83111653 346.7870244 161.83633202 345.70030003 161.84170556 344.58064461 C161.83724412 343.39242544 161.83278267 342.20420628 161.82818604 340.97998047 C161.83130602 339.71333494 161.834426 338.44668941 161.83764052 337.14166069 C161.84599336 333.62808659 161.84186105 330.11462107 161.83566809 326.60104656 C161.8311466 322.81094818 161.83812585 319.02086859 161.84362793 315.23077393 C161.85252681 307.80685704 161.85059772 300.38298057 161.84480265 292.9590621 C161.84028811 286.92613486 161.83967235 280.89321897 161.84185028 274.86029053 C161.84230998 273.57292915 161.84230998 273.57292915 161.84277897 272.25956047 C161.84341841 270.51612679 161.84406683 268.77269311 161.84472415 267.02925944 C161.85042889 250.67641605 161.84386729 234.32359506 161.83312342 217.97075534 C161.82418777 203.93557046 161.82573978 189.90041866 161.83496094 175.86523438 C161.84566102 159.57138842 161.84987956 143.27756212 161.84373641 126.98371315 C161.8430993 125.24664943 161.84247056 123.5095857 161.84185028 121.77252197 C161.84154173 120.91782629 161.84123318 120.06313061 161.84091528 119.18253505 C161.83918755 113.15600734 161.84210512 107.12949209 161.84680939 101.10296631 C161.8524153 93.75986561 161.85090787 86.41680767 161.8402479 79.07371187 C161.83498729 75.32629066 161.83294106 71.57894078 161.8395462 67.83152008 C161.84659348 63.77189513 161.83818562 59.71245072 161.82818604 55.65283203 C161.83264748 54.46461287 161.83710892 53.2763937 161.84170556 52.05216789 C161.83649007 50.96544352 161.83127457 49.87871914 161.82590103 48.75906372 C161.82557633 47.82196627 161.82525162 46.88486881 161.82491708 45.91937447 C161.54602488 43.02367296 160.89710528 40.90433241 159.57421875 38.31640625 C154.82082808 35.93160701 150.01641358 36.02194024 144.81640625 36.0078125 C143.12239212 35.98267106 141.42838178 35.95727279 139.734375 35.93164062 C137.08350462 35.90283217 134.43269965 35.87878983 131.78173828 35.86010742 C129.20963565 35.83847114 126.63825817 35.79905862 124.06640625 35.7578125 C123.2746701 35.75769669 122.48293396 35.75758087 121.66720581 35.75746155 C118.42381088 35.69908652 115.99029216 35.53699654 113.09814453 34.00366211 C110.67942131 31.32570694 110.69771708 28.83610862 110.57421875 25.31640625 C111.33089144 22.77123448 111.95994852 21.74867768 114.1184082 20.22973633 C117.75161146 18.87852712 121.3534595 19.01128869 125.1796875 19.015625 C126.43764885 19.00919731 126.43764885 19.00919731 127.72102356 19.00263977 C129.49540303 18.99690258 131.26980602 18.99639172 133.04418945 19.00073242 C135.73495644 19.00387499 138.42460463 18.98048702 141.11523438 18.95507812 C142.84505071 18.95280307 144.57486997 18.95210259 146.3046875 18.953125 C147.49580391 18.93931038 147.49580391 18.93931038 148.71098328 18.92521667 C156.8181427 18.99103597 164.36598289 21.17741575 170.7109375 26.33984375 C176.46314038 32.44176127 178.93109964 39.25879284 178.94921875 47.56640625 C178.8546493 49.48481516 178.74087794 51.40291185 178.57421875 53.31640625 C179.28964844 53.40921875 180.00507813 53.50203125 180.7421875 53.59765625 C189.50773572 55.82229194 197.43774313 64.14557158 202.57421875 71.31640625 C208.73335679 81.82397804 210.87449858 90.3016125 210.86474609 102.33862305 C210.87482193 104.13005234 210.87482193 104.13005234 210.88510132 105.95767212 C210.90079012 109.2157268 210.90745284 112.47362806 210.90873289 115.73171592 C210.91015853 117.76888152 210.91443566 119.80602069 210.91972733 121.8431797 C210.93819232 128.95414545 210.94640141 136.06503646 210.94482422 143.17602539 C210.94362022 149.80010956 210.96478178 156.42386929 210.99631155 163.04787129 C211.02245314 168.74316014 211.03319258 174.43834274 211.0319134 180.13369113 C211.03140361 183.53202529 211.03709715 186.93007009 211.0582695 190.32834435 C211.07779595 194.11329812 211.07214438 197.89740658 211.06005859 201.68237305 C211.07129761 202.80713547 211.08253662 203.93189789 211.09411621 205.09074402 C211.08153275 206.63622925 211.08153275 206.63622925 211.06869507 208.2129364 C211.0697846 209.1072018 211.07087414 210.00146719 211.07199669 210.92283154 C210.41329182 214.09022647 209.04438987 215.29902113 206.57421875 217.31640625 C203.66636994 218.02522928 201.63167975 217.65612414 198.57421875 217.31640625 C196.35506998 215.88469737 195.7863374 215.0024621 195.0155983 212.50965881 C194.53227365 210.1079775 194.44952534 207.92426563 194.449646 205.47436523 C194.44708298 204.50175247 194.44451996 203.52913971 194.44187927 202.52705383 C194.44397903 201.46625107 194.4460788 200.4054483 194.44824219 199.3125 C194.44543999 197.62878548 194.44543999 197.62878548 194.44258118 195.91105652 C194.43857631 193.47148875 194.43650226 191.03191722 194.43611908 188.59234619 C194.43225925 182.72549456 194.40616226 176.85875207 194.38290262 170.99195099 C194.34788093 161.99120156 194.32123226 152.9905694 194.32373047 143.98974609 C194.32549759 137.26111569 194.30105967 130.53300943 194.26184845 123.80447388 C194.25141676 121.24661306 194.24984339 118.68869948 194.25749969 116.13082886 C194.26717586 112.53854574 194.24583259 108.94762885 194.21777344 105.35546875 C194.22797012 104.31085983 194.23816681 103.26625092 194.24867249 102.18998718 C194.09937587 91.45654378 190.4489123 82.58575655 183.125 74.7421875 C181.61390461 73.22118891 181.61390461 73.22118891 179.57421875 72.31640625 C179.57362166 72.91392415 179.57302457 73.51144205 179.57240939 74.12706655 C179.53650608 109.55029599 179.47985275 144.97343318 179.3962978 180.39658305 C179.38628049 184.65102572 179.37643633 188.90546878 179.36669922 193.15991211 C179.36378716 194.43037281 179.36378716 194.43037281 179.36081627 195.72649939 C179.32980534 209.435918 179.31281815 223.14531988 179.30102453 236.85476696 C179.28860827 250.92464253 179.26109614 264.99443036 179.21960568 279.06425053 C179.19448386 287.744291 179.18110051 296.42418591 179.18278918 305.10426325 C179.18281896 311.05861565 179.16816957 317.01281991 179.14205447 322.96711456 C179.12742412 326.40114902 179.11919194 329.83487971 179.12841606 333.26893997 C179.13504674 336.99707691 179.11715526 340.72432941 179.09320068 344.45237732 C179.10484131 346.07059793 179.10484131 346.07059793 179.1167171 347.72150987 C179.00974053 357.13372789 176.42122249 364.62155815 169.57421875 371.31640625 C162.43217235 376.11679809 156.5324311 377.46739882 147.972229 377.45684814 C147.21476623 377.45981927 146.45730346 377.46279039 145.67688727 377.46585155 C143.14297869 377.47451153 140.60911751 377.4760445 138.07519531 377.47753906 C136.25657043 377.48216914 134.43794652 377.48719406 132.61932373 377.49258423 C127.68115684 377.50569182 122.74300353 377.51214997 117.80482197 377.51659489 C114.71802145 377.51952823 111.63122462 377.52363353 108.54442596 377.52809906 C98.88178533 377.5417696 89.21915317 377.55143846 79.55650353 377.55530095 C68.41119035 377.5597809 57.26599985 377.57732776 46.12072396 377.60630155 C37.49974449 377.62793335 28.8787995 377.63800603 20.25779319 377.63934207 C15.11161565 377.64038901 9.96555351 377.64627328 4.8194046 377.66416168 C-0.02332834 377.68066826 -4.86585945 377.68278529 -9.70861053 377.67402267 C-11.48187807 377.67325369 -13.25515657 377.67757668 -15.02839661 377.68748093 C-34.15849206 377.78802867 -34.15849206 377.78802867 -42.17578125 372.50390625 C-44.38594892 371.01533435 -44.38594892 371.01533435 -46.86328125 371.94140625 C-48.13171875 372.62203125 -48.13171875 372.62203125 -49.42578125 373.31640625 C-55.82592887 376.64981647 -60.854734 377.4656891 -68.027771 377.45684814 C-68.78523377 377.45981927 -69.54269654 377.46279039 -70.32311273 377.46585155 C-72.85702131 377.47451153 -75.39088249 377.4760445 -77.92480469 377.47753906 C-79.74342957 377.48216914 -81.56205348 377.48719406 -83.38067627 377.49258423 C-88.31884316 377.50569182 -93.25699647 377.51214997 -98.19517803 377.51659489 C-101.28197855 377.51952823 -104.36877538 377.52363353 -107.45557404 377.52809906 C-117.11821467 377.5417696 -126.78084683 377.55143846 -136.44349647 377.55530095 C-147.58880965 377.5597809 -158.73400015 377.57732776 -169.87927604 377.60630155 C-178.50025551 377.62793335 -187.1212005 377.63800603 -195.74220681 377.63934207 C-200.88838435 377.64038901 -206.03444649 377.64627328 -211.1805954 377.66416168 C-216.02332834 377.68066826 -220.86585945 377.68278529 -225.70861053 377.67402267 C-227.48187807 377.67325369 -229.25515657 377.67757668 -231.02839661 377.68748093 C-242.43467636 377.74743231 -252.29653289 377.56829267 -261.6328125 370.1328125 C-266.61022088 365.09033996 -269.54269302 358.56314792 -269.56444645 351.51192951 C-269.56992089 350.51667202 -269.57539534 349.52141453 -269.58103567 348.49599773 C-269.58201378 347.39970694 -269.58299189 346.30341614 -269.58399963 345.17390442 C-269.58893761 344.01161227 -269.59387559 342.84932013 -269.5989632 341.65180701 C-269.61169158 338.42053619 -269.61996655 335.18928871 -269.62638986 331.9580003 C-269.63438789 328.47539033 -269.64808772 324.99280232 -269.66110229 321.51020813 C-269.68287352 315.4746704 -269.70101564 309.43913047 -269.71670723 303.40357399 C-269.73939997 294.67712549 -269.76754363 285.9507013 -269.79702651 277.22427341 C-269.84470972 263.06692542 -269.88797193 248.9095675 -269.9284668 234.75219727 C-269.96781801 220.99795763 -270.00924334 207.24372682 -270.0534668 193.48950195 C-270.05619107 192.64198338 -270.05891534 191.79446481 -270.06172217 190.92126385 C-270.07540158 186.66959941 -270.08912187 182.4179351 -270.10286248 178.16627085 C-270.21683871 142.88300095 -270.32364553 107.59971234 -270.42578125 72.31640625 C-271.55518877 73.25268053 -272.6801485 74.19432168 -273.80322266 75.13818359 C-274.743629 75.92387222 -274.743629 75.92387222 -275.70303345 76.72543335 C-278.01778363 78.86312571 -279.37525135 81.14547744 -280.80078125 83.94140625 C-281.28289062 84.86179687 -281.765 85.7821875 -282.26171875 86.73046875 C-283.99398366 90.57865456 -284.55080684 93.81619339 -284.56000233 98.02579594 C-284.56446017 98.97446004 -284.56891801 99.92312414 -284.57351094 100.90053564 C-284.57332658 101.9397189 -284.57314222 102.97890215 -284.57295227 104.04957581 C-284.57662896 105.15595852 -284.58030565 106.26234124 -284.58409375 107.40225071 C-284.59513876 111.12307088 -284.59897584 114.84386314 -284.6027832 118.56469727 C-284.60904727 121.22721015 -284.61568124 123.88972004 -284.62269592 126.55223083 C-284.64244746 134.55216541 -284.65252536 142.55210122 -284.66142371 150.55205408 C-284.66580919 154.321736 -284.67117536 158.09141652 -284.67641258 161.86109734 C-284.69342435 174.39679072 -284.70791741 186.93248323 -284.71516132 199.46818638 C-284.71707114 202.72040877 -284.71899148 205.97263115 -284.72094727 209.22485352 C-284.72143101 210.03315331 -284.72191475 210.84145311 -284.72241315 211.67424684 C-284.73070929 224.76132122 -284.7560394 237.84830407 -284.78852794 250.9353385 C-284.82162966 264.37927762 -284.83961294 277.82317027 -284.84280556 291.26715034 C-284.8449679 298.81227319 -284.85367576 306.3572626 -284.87926674 313.90234566 C-284.90101642 320.32965054 -284.90900332 326.75678959 -284.89929996 333.1841271 C-284.89476735 336.46052188 -284.8987803 339.73650478 -284.9160614 343.01286697 C-284.93378824 346.57364803 -284.92666906 350.133569 -284.91352844 353.6943512 C-284.92449769 354.7179194 -284.93546693 355.7414876 -284.94676858 356.79607302 C-284.84954508 367.75148141 -281.53836084 376.27322047 -273.921875 384.15234375 C-266.00290054 391.0179335 -256.30518447 393.56519497 -245.98779297 393.56796265 C-245.28423109 393.57093279 -244.58066921 393.57390292 -243.85578728 393.57696307 C-241.52226238 393.58453949 -239.18899395 393.57813553 -236.85546875 393.57177734 C-235.17270743 393.57453019 -233.4899474 393.57821187 -231.80718994 393.58274841 C-228.19503013 393.59083533 -224.58293213 393.59303523 -220.97076416 393.59080124 C-215.25503517 393.58795948 -209.53942891 393.60235161 -203.82373047 393.61978149 C-187.57456286 393.66672828 -171.32540433 393.69075158 -155.07617188 393.69726562 C-146.09297969 393.70101875 -137.10992715 393.71906516 -128.12679482 393.75235999 C-122.44882707 393.77254582 -116.77122012 393.7749585 -111.0932312 393.76407981 C-107.55718098 393.76146807 -104.02133985 393.77549871 -100.48534393 393.79416084 C-98.85034702 393.79947142 -97.21531132 393.79800546 -95.5803299 393.78912544 C-78.15260067 393.70213015 -78.15260067 393.70213015 -70.80078125 400.87890625 C-68.65559579 403.68194858 -67.15311783 406.7416999 -65.55078125 409.87890625 C-62.23885201 416.12911117 -58.79688281 418.84154932 -52.42578125 421.62890625 C-45.63815802 423.18440324 -39.66841959 422.27228447 -33.42578125 419.31640625 C-29.11162414 416.43591721 -27.2707215 413.58703731 -25.05078125 408.94140625 C-21.23553708 401.55144417 -17.39385321 396.99191964 -9.42578125 394.31640625 C-6.16066742 394.06586647 -6.16066742 394.06586647 -2.38220215 394.06484985 C-1.33599599 394.06039465 -1.33599599 394.06039465 -0.26865435 394.05584943 C2.06251776 394.04822671 4.39343662 394.05469646 6.72460938 394.06103516 C8.39881562 394.0582843 10.07302055 394.05460382 11.7472229 394.05006409 C15.35123965 394.04195595 18.95519438 394.03978275 22.55921936 394.04201126 C28.26768034 394.04484823 33.97601791 394.03047603 39.68444824 394.01303101 C55.91689181 393.96604701 72.14932739 393.94208025 88.38183594 393.93554688 C97.34820756 393.93178572 106.31443981 393.91366875 115.28075171 393.88045251 C120.94478329 393.86032498 126.60845325 393.85782625 132.27250576 393.86873269 C135.81316981 393.87135661 139.35362738 393.8572536 142.89423752 393.83865166 C144.52390664 393.83336938 146.15361475 393.83475774 147.78326797 393.84368706 C160.89098683 393.90965583 173.63651547 392.78088556 183.57421875 383.31640625 C189.87388639 376.73039009 193.6789742 369.42962054 193.71897888 360.27540588 C193.72587738 359.25902039 193.73277588 358.24263489 193.73988342 357.19544983 C193.7424968 356.0862468 193.74511017 354.97704376 193.74780273 353.83422852 C193.75448975 352.66149384 193.76117676 351.48875916 193.76806641 350.28048706 C193.78578756 347.06768519 193.79933886 343.85489408 193.81167865 340.64206815 C193.82613791 337.27713317 193.84764555 333.91224573 193.86891174 330.54734802 C193.94004605 319.08850019 193.99990307 307.62960833 194.05102539 296.1706543 C194.07934588 289.8394345 194.11473361 283.50829281 194.15767914 277.17715496 C194.18003753 273.82860095 194.19856265 270.4801191 194.20812798 267.13150215 C194.22026329 263.39688226 194.24440553 259.66251754 194.27124023 255.92797852 C194.27182938 254.82079971 194.27241852 253.71362091 194.27302551 252.57289124 C194.28274384 251.55368591 194.29246216 250.53448059 194.30247498 249.48439026 C194.30670691 248.60189889 194.31093885 247.71940752 194.31529903 246.81017399 C194.72477372 242.86634624 195.76583136 240.12479364 198.57421875 237.31640625 C200.6328125 237.015625 200.6328125 237.015625 203.01171875 237.00390625 C204.18541016 236.97876953 204.18541016 236.97876953 205.3828125 236.953125 C208.15606527 237.41286209 208.86902019 238.10572088 210.57421875 240.31640625 C210.95453548 242.65105343 210.95453548 242.65105343 210.9618988 245.45579529 C210.97675575 247.05148598 210.97675575 247.05148598 210.99191284 248.67941284 C210.98741119 249.84666901 210.98290955 251.01392517 210.97827148 252.21655273 C210.98856636 254.06098213 210.98856636 254.06098213 210.99906921 255.94267273 C211.01425821 259.31941201 211.01582288 262.69560024 211.01012683 266.0723331 C211.00703599 268.89718972 211.01312737 271.72199645 211.01916558 274.54684597 C211.03322724 281.22162107 211.03164042 287.89626829 211.02026367 294.57104492 C211.00882465 301.43347474 211.02278269 308.29551182 211.04966015 315.15788978 C211.07191384 321.06300003 211.07843161 326.96798791 211.07258373 332.87313706 C211.06923058 336.39360788 211.07151657 339.91382802 211.08883476 343.43426323 C211.10736464 347.37356402 211.093018 351.31239474 211.07592773 355.25170898 C211.0855957 356.40074707 211.09526367 357.54978516 211.10522461 358.73364258 C210.97675992 372.96165006 205.72083187 384.96124147 196.19921875 395.44140625 C192.02344657 399.44055967 187.68864542 402.21648246 182.57421875 404.81640625 C181.93436035 405.1427002 181.29450195 405.46899414 180.63525391 405.80517578 C170.11227807 410.7919782 159.25192725 410.55926517 147.86865234 410.41308594 C146.19545824 410.39944355 144.52225483 410.38690575 142.8490448 410.37538147 C139.26362252 410.34972505 135.67829117 410.31902055 132.09293747 410.28514862 C126.41913408 410.23433654 120.74543906 410.21186344 115.07144165 410.1963501 C114.11142412 410.19363279 113.15140658 410.19091548 112.16229761 410.18811584 C110.20035452 410.18268367 108.23841117 410.17734846 106.27646756 410.17210817 C93.07959631 410.13642642 79.88370452 410.08515124 66.6875 409.94287109 C57.76637393 409.84689138 48.84651511 409.8004723 39.92485869 409.81147504 C35.20961318 409.81534382 30.49750899 409.79404065 25.78290939 409.71212006 C21.35081357 409.63553329 16.92333657 409.62449101 12.49079323 409.66308403 C10.8685401 409.66565105 9.2460406 409.64438189 7.62447548 409.59707069 C2.68238461 409.46083511 -1.73031813 409.55602677 -6.42578125 411.31640625 C-9.46515895 414.31356183 -11.15577243 417.98079493 -12.81453514 421.86023331 C-16.33673347 429.4154581 -23.71260982 434.48725071 -31.42578125 437.31640625 C-42.85467088 440.93209133 -54.29208602 440.07253776 -64.98828125 434.75390625 C-72.7373705 430.27328761 -77.48376859 424.34859081 -81.65625 416.515625 C-82.17985107 415.53811279 -82.70345215 414.56060059 -83.24291992 413.5534668 C-83.82843628 412.44612183 -83.82843628 412.44612183 -84.42578125 411.31640625 C-85.29508616 411.3140179 -86.16439108 411.31162954 -87.06003857 411.30916882 C-108.25314338 411.24992472 -129.44613537 411.17431463 -150.63911724 411.08069134 C-160.88806311 411.03580597 -171.1369748 410.99637467 -181.38598633 410.9699707 C-190.3233878 410.94693172 -199.26068044 410.91346814 -208.19799548 410.86770469 C-212.92627574 410.84385183 -217.65444874 410.82507119 -222.3827877 410.81879234 C-226.84222868 410.81270539 -231.30139547 410.7925766 -235.76073456 410.76213074 C-237.38877514 410.75340798 -239.01685165 410.74961583 -240.64491463 410.75139809 C-258.25801286 410.7645799 -273.67640989 408.0590712 -286.86328125 395.50390625 C-297.27860335 384.31207715 -302.06457557 371.63104904 -301.93371582 356.40014648 C-301.93995578 355.26313262 -301.94619575 354.12611876 -301.9526248 352.95464993 C-301.96846829 349.17788349 -301.95598388 345.40177022 -301.94335938 341.625 C-301.94658562 338.90380537 -301.95576543 336.18263772 -301.96459961 333.4614563 C-301.98231904 326.85760437 -301.97857438 320.25393502 -301.96694905 313.65007615 C-301.95788895 308.27955018 -301.95670182 302.90907513 -301.96104431 297.5385437 C-301.96165724 296.77208383 -301.96227018 296.00562396 -301.96290168 295.21593803 C-301.96418068 293.6585392 -301.96547753 292.10114038 -301.96679205 290.54374158 C-301.97817857 275.96466669 -301.96511448 261.38569266 -301.94359058 246.80663431 C-301.92572134 234.31667708 -301.92882599 221.8268686 -301.94726562 209.33691406 C-301.96870649 194.8074464 -301.97708012 180.27806698 -301.96481657 165.7485857 C-301.96354247 164.19714675 -301.96228499 162.64570778 -301.96104431 161.0942688 C-301.96042721 160.33107454 -301.95981011 159.56788029 -301.95917431 158.78155893 C-301.95573104 153.42196772 -301.96152759 148.06243283 -301.97096252 142.70285034 C-301.98221973 136.16484981 -301.97906476 129.6270412 -301.95783955 123.08906245 C-301.94737855 119.75777275 -301.94530062 116.42706463 -301.95643616 113.09573746 C-301.96742222 109.47439877 -301.95358952 105.85394862 -301.93371582 102.23266602 C-301.94263871 101.19412192 -301.95156159 100.15557783 -301.96075487 99.08556271 C-301.81689647 85.50269807 -296.38793729 73.48549033 -287.17578125 63.56640625 C-282.55087523 59.22530128 -275.94519931 53.31640625 -269.42578125 53.31640625 C-269.4721875 52.48238281 -269.51859375 51.64835937 -269.56640625 50.7890625 C-269.86686908 41.42106085 -268.42194512 35.76784971 -263.23828125 28.06640625 C-256.63800534 21.61280314 -249.71756168 19.17651679 -240.58790588 19.21202087 C-239.42013611 19.21379333 -238.25236633 19.2155658 -237.04920959 19.21739197 C-235.77685959 19.22420486 -234.50450958 19.23101776 -233.19360352 19.23803711 C-231.83316169 19.24155549 -230.47271833 19.24452186 -229.11227417 19.24697876 C-226.1876031 19.25264183 -223.26295074 19.26064901 -220.33828926 19.27000237 C-215.71133696 19.2832029 -211.08446773 19.28144249 -206.45750427 19.27577209 C-205.67582384 19.27485201 -204.89414341 19.27393193 -204.08877569 19.27298397 C-201.68223048 19.2700133 -199.27568557 19.2668486 -196.86914062 19.26367188 C-186.90959491 19.2508765 -176.95044354 19.24893227 -166.9909668 19.29223633 C-159.72129762 19.32373907 -152.45222714 19.32703982 -145.18254131 19.29747683 C-141.33778483 19.28293384 -137.49422629 19.28272993 -133.64956856 19.31687737 C-130.03329878 19.34872281 -126.4189942 19.3432296 -122.80276108 19.30937576 C-120.84773484 19.30080191 -118.89265987 19.33183257 -116.93788147 19.36412048 C-110.66996511 19.41781236 -110.66996511 19.41781236 -105.35217094 16.56421089 C-103.82889198 14.54662011 -102.62565755 12.53646991 -101.42578125 10.31640625 C-91.62322231 -1.05654578 -79.65934471 -8.14135838 -65.42578125 -12.68359375 C-64.65492188 -12.92980469 -63.8840625 -13.17601562 -63.08984375 -13.4296875 C-42.18627924 -18.74726093 -16.74819296 -13.7279469 0 0 Z M-89.42578125 21.31640625 C-92.03684106 24.51083798 -94.30599166 27.77945396 -96.42578125 31.31640625 C-96.8228125 31.95835938 -97.21984375 32.6003125 -97.62890625 33.26171875 C-104.54669291 45.60015914 -105.06089287 60.5406001 -101.80078125 74.00390625 C-97.62916668 87.97664986 -90.0197467 96.91117971 -79.75390625 106.921875 C-77.76072364 108.97191013 -76.22861182 110.83273798 -74.73828125 113.25390625 C-74.34253906 113.88167969 -73.94679687 114.50945312 -73.5390625 115.15625 C-70.00813653 122.0074853 -69.88954785 128.74155183 -69.42578125 136.31640625 C-64.14578125 136.31640625 -58.86578125 136.31640625 -53.42578125 136.31640625 C-53.20960148 131.93876597 -53.05119107 127.57179212 -52.92578125 123.19140625 C-52.85875 121.95390625 -52.79171875 120.71640625 -52.72265625 119.44140625 C-52.3731853 112.87274996 -52.3731853 112.87274996 -55.15649414 107.22241211 C-57.24762745 105.62175718 -57.24762745 105.62175718 -59.45532227 104.45239258 C-63.3529566 102.20537331 -65.03223201 98.49705396 -66.42578125 94.31640625 C-67.09889323 86.86803594 -66.99190769 80.47918474 -62.42578125 74.31640625 C-57.87331552 69.76394052 -52.4435417 67.18583952 -45.98828125 66.94140625 C-40.00048263 67.17602187 -35.36564238 68.7733349 -30.67578125 72.50390625 C-26.00117339 78.34716607 -23.74066872 83.27130092 -24.11328125 90.86328125 C-24.99510085 97.78556509 -27.20635987 101.7713342 -32.70703125 106.08984375 C-34.25805132 107.19670808 -35.84033525 108.25944225 -37.42578125 109.31640625 C-37.84342507 112.12915377 -37.84342507 112.12915377 -37.71875 115.41796875 C-37.70908203 116.6296875 -37.69941406 117.84140625 -37.68945312 119.08984375 C-37.66431641 120.36085938 -37.63917969 121.631875 -37.61328125 122.94140625 C-37.59974609 124.22015625 -37.58621094 125.49890625 -37.57226562 126.81640625 C-37.53681587 129.98325094 -37.48300762 133.14988022 -37.42578125 136.31640625 C-32.14578125 136.31640625 -26.86578125 136.31640625 -21.42578125 136.31640625 C-21.34328125 134.21265625 -21.26078125 132.10890625 -21.17578125 129.94140625 C-20.37108226 119.15409009 -17.23541541 111.82321786 -9.42578125 104.31640625 C-8.13905479 103.26864328 -6.84727848 102.22705443 -5.55078125 101.19140625 C4.38920358 92.70180831 9.68949633 80.26883773 12.32421875 67.75390625 C12.40671875 66.61953125 12.48921875 65.48515625 12.57421875 64.31640625 C12.63738281 63.55585938 12.70054687 62.7953125 12.765625 62.01171875 C13.46372294 46.83371829 8.10006124 32.48162594 -1.73828125 21.06640625 C-13.12467267 9.05166881 -26.55900084 1.52837751 -43.36181641 0.96264648 C-62.10600725 0.76975027 -76.76698933 7.85155522 -89.42578125 21.31640625 Z M-250.42578125 38.31640625 C-252.99447105 41.90372396 -253.80102305 44.36922437 -253.80330467 48.75906372 C-253.81112791 49.8457881 -253.81895116 50.93251247 -253.82701147 52.05216789 C-253.8203193 53.24038706 -253.81362714 54.42860622 -253.80673218 55.65283203 C-253.81141215 56.91947756 -253.81609212 58.18612309 -253.82091391 59.49115181 C-253.83344332 63.00477098 -253.82724483 66.51814586 -253.81795526 70.03176594 C-253.81117301 73.8218737 -253.82164189 77.61193919 -253.82989502 81.40203857 C-253.84324337 88.82597163 -253.84034972 96.24981376 -253.8316571 103.6737504 C-253.82488529 109.70668186 -253.82396165 115.73958781 -253.82722855 121.77252197 C-253.82768825 122.63076289 -253.82814794 123.48900381 -253.82862157 124.37325203 C-253.82958074 126.11668572 -253.83055338 127.86011939 -253.83153935 129.60355306 C-253.84009647 145.95640733 -253.83025406 162.30921116 -253.81413825 178.66205716 C-253.80073477 192.69725608 -253.80306277 206.73238055 -253.81689453 220.76757812 C-253.83294466 237.061431 -253.83927247 253.35523967 -253.83005774 269.64909935 C-253.82910208 271.38616307 -253.82815897 273.12322679 -253.82722855 274.86029053 C-253.82676572 275.71498621 -253.82630289 276.56968189 -253.82582604 277.45027745 C-253.82323445 283.47681115 -253.82761079 289.50331683 -253.83466721 295.52984619 C-253.8430761 302.87296676 -253.84081496 310.2159911 -253.82482497 317.55910063 C-253.81693399 321.30655177 -253.81386464 325.05384242 -253.82377243 328.80129242 C-253.83434354 332.86099519 -253.82173182 336.92029177 -253.80673218 340.97998047 C-253.81342434 342.16819963 -253.82011651 343.3564188 -253.82701147 344.58064461 C-253.8152766 346.21073117 -253.8152766 346.21073117 -253.80330467 347.87374878 C-253.80281762 348.81084623 -253.80233056 349.74794369 -253.80182874 350.71343803 C-253.34500253 353.87554953 -252.29168275 355.74121186 -250.42578125 358.31640625 C-245.97027435 361.25429689 -242.03813432 361.74808564 -236.82847595 361.69735718 C-236.0836707 361.70203715 -235.33886545 361.70671712 -234.57149035 361.71153891 C-232.08645791 361.72346408 -229.60197947 361.71404167 -227.11694336 361.70458984 C-225.33108703 361.70865662 -223.54523321 361.71399909 -221.75938416 361.72052002 C-216.91652011 361.73418583 -212.07384799 361.72889824 -207.23098063 361.71938276 C-202.16175875 361.71178357 -197.09255322 361.71883239 -192.02333069 361.72354126 C-183.51186169 361.72899755 -175.00047081 361.72180998 -166.48901367 361.70751953 C-156.64824732 361.69118803 -146.80766738 361.69648568 -136.96690553 361.71299875 C-128.51665397 361.72661095 -120.06645854 361.72853473 -111.61619955 361.72068274 C-106.56966792 361.71600545 -101.52322393 361.71538306 -96.47669792 361.72529221 C-91.73325048 361.73395589 -86.99004354 361.72795088 -82.24662209 361.71060944 C-80.50554682 361.70664163 -78.76445132 361.70778367 -77.02338409 361.71439743 C-74.64735014 361.72259135 -72.27208766 361.71231798 -69.89610291 361.69735718 C-69.20660724 361.70404934 -68.51711158 361.71074151 -67.8067221 361.71763647 C-62.58818463 361.65386925 -59.57100468 360.15516919 -55.67578125 356.81640625 C-53.05970301 353.67711236 -53.30211657 350.41780673 -53.30552673 346.52680969 C-53.30415207 345.31946167 -53.3027774 344.11211365 -53.30136108 342.86817932 C-53.3049002 341.52841162 -53.30853501 340.18864416 -53.31225586 338.84887695 C-53.3125379 337.43958539 -53.31237967 336.03029368 -53.31181335 334.6210022 C-53.31152604 330.79277671 -53.3174122 326.96458245 -53.32438731 323.13636422 C-53.33063173 319.13649926 -53.33122551 315.13663361 -53.33241272 311.13676453 C-53.33552282 303.56138211 -53.34373189 295.9860141 -53.35376221 288.41063803 C-53.36493331 279.78679257 -53.37043631 271.16294642 -53.37545764 262.53909552 C-53.38591475 244.79819093 -53.403508 227.05729975 -53.42578125 209.31640625 C-54.24127441 209.26307129 -55.05676758 209.20973633 -55.89697266 209.15478516 C-56.97124512 209.07663574 -58.04551758 208.99848633 -59.15234375 208.91796875 C-60.21533691 208.84400879 -61.27833008 208.77004883 -62.37353516 208.69384766 C-69.40249374 207.82464513 -73.76172904 204.53765346 -78.19921875 199.1953125 C-81.13754844 194.69424058 -81.56310599 191.07203326 -81.55078125 185.75390625 C-81.63816904 181.2093843 -81.63816904 181.2093843 -84.16015625 177.7578125 C-86.26098125 176.77411469 -86.26098125 176.77411469 -88.41796875 176.22265625 C-91.33040665 174.90809284 -92.01025838 173.13954956 -93.42578125 170.31640625 C-93.81396484 167.625 -93.81396484 167.625 -93.82421875 164.75390625 C-93.82808594 163.70976562 -93.83195313 162.665625 -93.8359375 161.58984375 C-93.81853516 159.96949219 -93.81853516 159.96949219 -93.80078125 158.31640625 C-93.81238281 157.23617187 -93.82398438 156.1559375 -93.8359375 155.04296875 C-93.83207031 153.99882812 -93.82820312 152.9546875 -93.82421875 151.87890625 C-93.82083496 150.93144531 -93.81745117 149.98398438 -93.81396484 149.0078125 C-93.35115939 145.79902804 -92.32694346 143.92436012 -90.42578125 141.31640625 C-89.53890625 140.78015625 -88.65203125 140.24390625 -87.73828125 139.69140625 C-84.94665422 136.82432984 -85.02591862 135.84149332 -84.92578125 131.94140625 C-85.35303638 123.25773444 -89.18981821 119.15679297 -95.43359375 113.49609375 C-105.94482419 103.57085525 -112.41653427 92.19716051 -116.42578125 78.31640625 C-116.67070312 77.50171875 -116.915625 76.68703125 -117.16796875 75.84765625 C-118.50453043 70.50140953 -118.65190129 65.11316418 -118.73828125 59.62890625 C-118.75608643 58.93506836 -118.7738916 58.24123047 -118.79223633 57.52636719 C-118.78467967 52.38551696 -117.94766181 47.52151545 -116.90307617 42.50073242 C-116.6909058 41.46176945 -116.6909058 41.46176945 -116.47444916 40.40181732 C-116.12773734 38.70609629 -115.77715169 37.0111681 -115.42578125 35.31640625 C-132.14164706 35.24629302 -148.85746509 35.19340677 -165.57344246 35.16096973 C-173.33514449 35.14550764 -181.09675509 35.12443076 -188.85839844 35.09008789 C-195.62426594 35.06016532 -202.39006723 35.04082646 -209.15599906 35.03414077 C-212.73779173 35.03023332 -216.31939497 35.02106419 -219.90112686 34.99921608 C-223.90178036 34.97501105 -227.90210553 34.97443809 -231.90283203 34.97583008 C-233.08750565 34.96504425 -234.27217926 34.95425842 -235.49275208 34.94314575 C-243.42605682 34.89631165 -243.42605682 34.89631165 -250.42578125 38.31640625 Z M-49.67578125 84.00390625 C-51.60588672 86.18544941 -51.60588672 86.18544941 -51.86328125 88.87890625 C-51.5806344 91.31567454 -51.5806344 91.31567454 -50.30078125 93.12890625 C-47.52574314 94.88643039 -45.6364838 94.78463371 -42.42578125 94.31640625 C-40.34722045 92.73944993 -40.34722045 92.73944993 -39.42578125 90.31640625 C-39.56670018 87.42756814 -40.0432873 85.84461218 -41.73828125 83.50390625 C-44.74781884 81.3860835 -46.87670495 81.90459902 -49.67578125 84.00390625 Z M-78.42578125 152.31640625 C-78.42578125 155.94640625 -78.42578125 159.57640625 -78.42578125 163.31640625 C-56.64578125 163.31640625 -34.86578125 163.31640625 -12.42578125 163.31640625 C-12.42578125 159.68640625 -12.42578125 156.05640625 -12.42578125 152.31640625 C-34.20578125 152.31640625 -55.98578125 152.31640625 -78.42578125 152.31640625 Z M-66.42578125 179.31640625 C-67.45806969 188.5576526 -67.45806969 188.5576526 -64.3828125 191.90600586 C-60.75439101 193.63663589 -58.13217927 193.84873265 -54.11328125 193.8828125 C-53.07627075 193.89211037 -53.07627075 193.89211037 -52.01831055 193.90159607 C-50.56267702 193.90867172 -49.10696218 193.90555953 -47.65136719 193.89282227 C-45.43142138 193.87894152 -43.2156848 193.91306414 -40.99609375 193.95117188 C-39.57682189 193.9521231 -38.15754479 193.95026404 -36.73828125 193.9453125 C-35.45566406 193.9460376 -34.17304688 193.9467627 -32.8515625 193.94750977 C-29.32542234 193.53166157 -29.32542234 193.53166157 -26.46875 191.33959961 C-23.58591878 187.68170037 -23.58591878 187.68170037 -24.42578125 179.31640625 C-38.28578125 179.31640625 -52.14578125 179.31640625 -66.42578125 179.31640625 Z " fill="#000000" transform="translate(301.42578125,67.68359375)"/>
<path d="M0 0 C1.11880051 -0.0112793 2.23760101 -0.02255859 3.39030457 -0.03417969 C5.22477898 -0.0220343 5.22477898 -0.0220343 7.09631348 -0.00964355 C9.03338921 -0.02015747 9.03338921 -0.02015747 11.00959778 -0.03088379 C14.54892562 -0.04911466 18.08778692 -0.04205099 21.62712288 -0.02936745 C25.33150614 -0.01923837 29.03584954 -0.02863286 32.74023438 -0.03491211 C38.96105113 -0.04218882 45.18167791 -0.03260033 51.40246582 -0.0135498 C58.59397591 0.00821917 65.7850324 0.0011678 72.97653151 -0.02085543 C79.15160997 -0.03900889 85.3265519 -0.04156807 91.50164843 -0.03110075 C95.18950365 -0.02486545 98.87714567 -0.02403097 102.56498718 -0.0372467 C106.67596286 -0.05094979 110.78615689 -0.0319566 114.89709473 -0.00964355 C116.12007767 -0.01774048 117.34306061 -0.0258374 118.60310364 -0.03417969 C120.2813044 -0.01726074 120.2813044 -0.01726074 121.9934082 0 C122.96531349 0.0015081 123.93721878 0.0030162 124.93857574 0.00457001 C128.22618101 0.65147421 129.41912687 1.93682017 131.4967041 4.50793457 C132.06311035 6.50793457 132.06311035 6.50793457 132.0592041 8.50793457 C132.08111816 9.16793457 132.10303223 9.82793457 132.12561035 10.50793457 C131.06365884 13.88507229 129.56080695 14.70475359 126.4967041 16.50793457 C122.33102535 17.12429963 118.18765194 17.06426441 113.98303223 17.04138184 C112.71261581 17.04999741 111.4421994 17.05861298 110.13328552 17.06748962 C106.65594716 17.08996189 103.1790644 17.08704949 99.70168114 17.07816815 C96.79652148 17.07305297 93.89144705 17.08035499 90.98629618 17.08764023 C84.13243038 17.1046319 77.27878727 17.10108041 70.42492676 17.08435059 C63.35774245 17.067423 56.29117553 17.08327356 49.22405863 17.11557347 C43.15169665 17.14227383 37.07952681 17.14954444 31.00711203 17.14105839 C27.38233325 17.13613119 23.75792605 17.13833314 20.13319397 17.1588459 C16.0918627 17.18062237 12.05170169 17.16179985 8.01037598 17.13903809 C6.21170326 17.15657639 6.21170326 17.15657639 4.37669373 17.17446899 C-3.69913142 17.08172826 -3.69913142 17.08172826 -7.75024414 14.19114685 C-10.05717479 10.6601703 -10.1806876 8.64755053 -9.5032959 4.50793457 C-6.60136347 0.76195453 -4.67713881 0.0072575 0 0 Z " fill="#000000" transform="translate(303.5032958984375,303.4920654296875)"/>
<path d="M0 0 C1.11880051 -0.0112793 2.23760101 -0.02255859 3.39030457 -0.03417969 C5.22477898 -0.0220343 5.22477898 -0.0220343 7.09631348 -0.00964355 C9.03338921 -0.02015747 9.03338921 -0.02015747 11.00959778 -0.03088379 C14.54892562 -0.04911466 18.08778692 -0.04205099 21.62712288 -0.02936745 C25.33150614 -0.01923837 29.03584954 -0.02863286 32.74023438 -0.03491211 C38.96105113 -0.04218882 45.18167791 -0.03260033 51.40246582 -0.0135498 C58.59397591 0.00821917 65.7850324 0.0011678 72.97653151 -0.02085543 C79.15160997 -0.03900889 85.3265519 -0.04156807 91.50164843 -0.03110075 C95.18950365 -0.02486545 98.87714567 -0.02403097 102.56498718 -0.0372467 C106.67596286 -0.05094979 110.78615689 -0.0319566 114.89709473 -0.00964355 C116.12007767 -0.01774048 117.34306061 -0.0258374 118.60310364 -0.03417969 C120.2813044 -0.01726074 120.2813044 -0.01726074 121.9934082 0 C122.96531349 0.0015081 123.93721878 0.0030162 124.93857574 0.00457001 C128.25849211 0.65783209 129.44639378 1.86127696 131.4967041 4.50793457 C132.1740958 8.64755053 132.05058299 10.6601703 129.74365234 14.19114685 C124.74011691 17.7613083 119.98653248 17.19757635 113.98303223 17.13903809 C112.71261581 17.14619339 111.4421994 17.15334869 110.13328552 17.16072083 C106.65581737 17.17921518 103.17911719 17.16630972 99.70168114 17.14663053 C96.05916855 17.13022592 92.41670392 17.13905942 88.77416992 17.14414978 C82.65763097 17.14866875 76.54139803 17.13281342 70.42492676 17.1048584 C63.35779983 17.07280708 56.29122474 17.07282268 49.22405863 17.09007317 C42.42004904 17.10594819 35.61624138 17.09919852 28.8122406 17.08213615 C25.91917024 17.07527136 23.02626202 17.07629213 20.13319397 17.08368111 C16.09194388 17.09277916 12.05154325 17.06878778 8.01037598 17.04138184 C6.81126083 17.04790771 5.61214569 17.05443359 4.37669373 17.06115723 C-3.72213928 16.96763414 -3.72213928 16.96763414 -7.74609375 14.59959412 C-9.64463681 12.33969151 -10.162566 11.42242236 -10.0657959 8.50793457 C-10.06708496 7.84793457 -10.06837402 7.18793457 -10.06970215 6.50793457 C-8.60126095 1.32281806 -4.98169004 0.00773007 0 0 Z " fill="#000000" transform="translate(86.5032958984375,303.4920654296875)"/>
<path d="M0 0 C1.07528458 -0.00571014 2.15056915 -0.01142029 3.25843811 -0.01730347 C4.43309631 -0.01842133 5.60775452 -0.01953918 6.81800842 -0.02069092 C8.67952293 -0.02813828 8.67952293 -0.02813828 10.5786438 -0.03573608 C13.97947637 -0.0478329 17.38024755 -0.05529936 20.78109431 -0.05974674 C22.90652083 -0.06268093 25.03194199 -0.06678632 27.1573658 -0.07125092 C33.80967048 -0.08491673 40.46196289 -0.09458871 47.11428064 -0.09845281 C54.78960674 -0.10293596 62.46475497 -0.12049948 70.14002699 -0.1494534 C76.07644609 -0.1710697 82.01281513 -0.181157 87.94927317 -0.18249393 C91.49351348 -0.1835417 95.03758637 -0.18944385 98.5817852 -0.20731354 C102.53428266 -0.2268555 106.48655753 -0.22250545 110.43910217 -0.21600342 C112.19805313 -0.22982559 112.19805313 -0.22982559 113.99253845 -0.243927 C115.07064285 -0.23835785 116.14874725 -0.2327887 117.25952148 -0.22705078 C118.66068915 -0.22925062 118.66068915 -0.22925062 120.09016323 -0.2314949 C123.52652109 0.25950167 126.22399602 1.67118535 128.69325256 4.14044189 C129.2881394 11.3980613 129.2881394 11.3980613 127.01059723 14.24028778 C124.16642616 16.57242397 122.82864832 16.64273032 119.18995667 16.64837646 C117.51175591 16.66529541 117.51175591 16.66529541 115.7996521 16.68255615 C113.96517769 16.67041077 113.96517769 16.67041077 112.09364319 16.65802002 C110.15656746 16.66853394 110.15656746 16.66853394 108.18035889 16.67926025 C104.64103105 16.69749112 101.10216975 16.69042746 97.56283379 16.67774391 C93.85845052 16.66761484 90.15410713 16.67700932 86.44972229 16.68328857 C80.22890554 16.69056528 74.00827875 16.68097679 67.78749084 16.66192627 C60.59598075 16.6401573 53.40492426 16.64720866 46.21342516 16.66923189 C40.0383467 16.68738535 33.86340477 16.68994454 27.68830824 16.67947721 C24.00045302 16.67324191 20.31281099 16.67240744 16.62496948 16.68562317 C12.5139938 16.69932625 8.40379977 16.68033306 4.29286194 16.65802002 C3.069879 16.66611694 1.84689606 16.67421387 0.58685303 16.68255615 C-0.53194748 16.67127686 -1.65074799 16.65999756 -2.80345154 16.64837646 C-3.77535683 16.64686836 -4.74726212 16.64536026 -5.74861908 16.64380646 C-9.07012469 15.99023166 -10.26313285 14.79544128 -12.30674744 12.14044189 C-12.77192164 8.41904825 -12.81529702 6.1066861 -11.05674744 2.76544189 C-7.86009776 -0.20287566 -4.20229835 0.01338755 0 0 Z " fill="#000000" transform="translate(306.30674743652344,334.85955810546875)"/>
<path d="M0 0 C1.27041641 -0.00700928 2.54083282 -0.01401855 3.8497467 -0.02124023 C7.32710401 -0.03944741 10.80398566 -0.03241726 14.28135109 -0.01972389 C17.92386767 -0.00958252 21.56634409 -0.01899272 25.2088623 -0.02526855 C31.32535092 -0.03254169 37.44164622 -0.02296618 43.55810547 -0.00390625 C50.62521911 0.01786205 57.69187114 0.01081043 64.7589736 -0.01121187 C70.83132927 -0.02937555 76.90354614 -0.03191953 82.9759202 -0.0214572 C86.6006365 -0.01522751 90.22513597 -0.01437196 93.84983826 -0.02760315 C97.89105478 -0.04132485 101.93147803 -0.02229642 105.97265625 0 C107.17177139 -0.00809692 108.37088654 -0.01619385 109.6063385 -0.02453613 C117.70560017 0.05836961 117.70560017 0.05836961 121.72912598 2.42492676 C123.62727589 4.68543276 124.14560402 5.60291601 124.04882812 8.51757812 C124.05011719 9.17757813 124.05140625 9.83757812 124.05273438 10.51757812 C123.23231508 13.41450693 121.79001966 14.61254463 119.48632812 16.51757812 C116.94661045 17.02094269 116.94661045 17.02094269 114.02772522 17.0255127 C112.91878403 17.03679199 111.80984283 17.04807129 110.66729736 17.05969238 C109.45523621 17.05159546 108.24317505 17.04349854 106.99438477 17.03515625 C105.71436081 17.04216553 104.43433685 17.0491748 103.11552429 17.05639648 C99.60711871 17.07462777 96.09918378 17.06756305 92.59077001 17.05488014 C88.91755106 17.04474911 85.24437227 17.0541463 81.57115173 17.0604248 C75.401609 17.06770186 69.23225779 17.05811308 63.06274414 17.0390625 C55.93373661 17.01730309 48.80518683 17.02433779 41.67619044 17.04636812 C35.55290027 17.06453211 29.42974775 17.06707533 23.30643934 17.05661345 C19.65040966 17.05038269 15.99459498 17.04953096 12.33857918 17.0627594 C8.26133338 17.07648134 4.18487385 17.05745209 0.10766602 17.03515625 C-1.70738937 17.04730164 -1.70738937 17.04730164 -3.55911255 17.05969238 C-11.7318706 16.97677621 -11.7318706 16.97677621 -15.76100159 14.61022949 C-17.64358487 12.36246475 -18.19530161 11.41702037 -18.13867188 8.51757812 C-18.1515625 7.85757812 -18.16445313 7.19757813 -18.17773438 6.51757812 C-15.55004154 -1.3964144 -6.73335137 -0.04546639 0 0 Z " fill="#000000" transform="translate(311.513671875,366.482421875)"/>
<path d="M0 0 C1.27041641 -0.00700928 2.54083282 -0.01401855 3.8497467 -0.02124023 C7.32710401 -0.03944741 10.80398566 -0.03241726 14.28135109 -0.01972389 C17.92386767 -0.00958252 21.56634409 -0.01899272 25.2088623 -0.02526855 C31.32535092 -0.03254169 37.44164622 -0.02296618 43.55810547 -0.00390625 C50.62521911 0.01786205 57.69187114 0.01081043 64.7589736 -0.01121187 C70.83132927 -0.02937555 76.90354614 -0.03191953 82.9759202 -0.0214572 C86.6006365 -0.01522751 90.22513597 -0.01437196 93.84983826 -0.02760315 C97.89105478 -0.04132485 101.93147803 -0.02229642 105.97265625 0 C107.17177139 -0.00809692 108.37088654 -0.01619385 109.6063385 -0.02453613 C117.70613854 0.05837512 117.70613854 0.05837512 121.72692871 2.42492676 C123.61674573 4.67269843 124.16803838 5.61401283 124.11132812 8.51757812 C124.12421875 9.17757813 124.13710937 9.83757812 124.15039062 10.51757812 C123.03363255 13.88099068 121.56236461 14.71084013 118.48632812 16.51757812 C114.28436143 17.1300713 110.10492049 17.06352761 105.86499023 17.03515625 C103.94232582 17.04567017 103.94232582 17.04567017 101.9808197 17.05639648 C98.47254016 17.07460346 94.96473209 17.06757407 91.4564445 17.05488014 C87.7827636 17.04474084 84.10912258 17.05414819 80.43544006 17.0604248 C74.26767744 17.06769762 68.10010655 17.0581223 61.93237305 17.0390625 C54.80275687 17.01728462 47.67359808 17.02435291 40.54399294 17.04636812 C34.41984898 17.06452118 28.29584268 17.06708126 22.17168051 17.05661345 C18.51513868 17.05037916 14.85881186 17.04954106 11.20228386 17.0627594 C7.12733748 17.07646207 3.05317968 17.05747002 -1.02172852 17.03515625 C-2.83982025 17.04730164 -2.83982025 17.04730164 -4.69464111 17.05969238 C-6.3580529 17.04277344 -6.3580529 17.04277344 -8.05506897 17.0255127 C-9.49991716 17.02325054 -9.49991716 17.02325054 -10.9739542 17.02094269 C-14.24773147 16.37208968 -15.44234751 15.07672799 -17.51367188 12.51757812 C-18.08007812 10.51757812 -18.08007812 10.51757812 -18.07617188 8.51757812 C-18.09808594 7.85757812 -18.12 7.19757813 -18.14257812 6.51757812 C-15.64681914 -1.41924547 -6.65960851 -0.04496844 0 0 Z " fill="#000000" transform="translate(94.513671875,366.482421875)"/>
<path d="M0 0 C1.07246475 -0.00571014 2.1449295 -0.01142029 3.24989319 -0.01730347 C4.42657562 -0.01842133 5.60325806 -0.01953918 6.81559753 -0.02069092 C8.05485489 -0.02565582 9.29411224 -0.03062073 10.57092285 -0.03573608 C13.9718818 -0.04784634 17.37277925 -0.05530334 20.77375245 -0.05974674 C22.89934889 -0.06267908 25.02493995 -0.06678421 27.15053368 -0.07125092 C33.80337779 -0.08492385 40.45620959 -0.09459135 47.10906678 -0.09845281 C54.78439302 -0.10293239 62.45954107 -0.12047639 70.13481313 -0.1494534 C76.07037845 -0.17108313 82.00589368 -0.18115778 87.94149798 -0.18249393 C91.4852262 -0.18354109 95.02878686 -0.18942974 98.57247353 -0.20731354 C102.52727102 -0.22688386 106.48184655 -0.22250007 110.43669128 -0.21600342 C111.60730103 -0.2252182 112.77791077 -0.23443298 113.98399353 -0.243927 C124.06183395 -0.19200381 124.06183395 -0.19200381 128.82023621 3.14044189 C130.36610496 6.23217941 130.11383142 8.73473742 129.82023621 12.14044189 C127.78438811 14.80717569 126.58680502 15.98960366 123.26210785 16.64380646 C122.29020256 16.64531456 121.31829727 16.64682266 120.31694031 16.64837646 C118.63873955 16.66529541 118.63873955 16.66529541 116.92663574 16.68255615 C115.09216133 16.67041077 115.09216133 16.67041077 113.22062683 16.65802002 C111.2835511 16.66853394 111.2835511 16.66853394 109.30734253 16.67926025 C105.76801469 16.69749112 102.22915339 16.69042746 98.68981743 16.67774391 C94.98543417 16.66761484 91.28109077 16.67700932 87.57670593 16.68328857 C81.35588918 16.69056528 75.1352624 16.68097679 68.91447449 16.66192627 C61.72296439 16.6401573 54.5319079 16.64720866 47.3404088 16.66923189 C41.16533034 16.68738535 34.99038841 16.68994454 28.81529188 16.67947721 C25.12743666 16.67324191 21.43979464 16.67240744 17.75195312 16.68562317 C13.64097745 16.69932625 9.53078342 16.68033306 5.41984558 16.65802002 C4.19686264 16.66611694 2.9738797 16.67421387 1.71383667 16.68255615 C0.59503616 16.67127686 -0.52376434 16.65999756 -1.6764679 16.64837646 C-2.64837318 16.64686836 -3.62027847 16.64536026 -4.62163544 16.64380646 C-7.90988681 15.99677512 -9.10605614 14.71615326 -11.17976379 12.14044189 C-11.88858682 9.23259308 -11.51948168 7.19790289 -11.17976379 4.14044189 C-8.42785803 0.07810481 -4.58370931 0.01460854 0 0 Z " fill="#000000" transform="translate(88.17976379394531,334.85955810546875)"/>
<path d="M0 0 C1.4236084 -0.01279495 1.4236084 -0.01279495 2.87597656 -0.02584839 C4.42757225 -0.02448883 4.42757225 -0.02448883 6.01051331 -0.02310181 C7.10521942 -0.02981903 8.19992554 -0.03653625 9.32780457 -0.04345703 C12.95068383 -0.06247302 16.57337824 -0.06636291 20.19630432 -0.06851196 C22.71209795 -0.07493678 25.22789082 -0.0816649 27.74368286 -0.08868408 C33.01867372 -0.10066543 38.29361758 -0.10444955 43.56861877 -0.10317993 C49.66151797 -0.10197815 55.75406314 -0.12308897 61.84687275 -0.15466726 C67.71377709 -0.18398866 73.58054142 -0.19115561 79.44751167 -0.18996048 C81.94141652 -0.19232312 84.43532389 -0.20118373 86.92918205 -0.21662521 C90.41492608 -0.23618912 93.899755 -0.2304844 97.38551331 -0.21841431 C98.4178862 -0.22965332 99.45025909 -0.24089233 100.51391602 -0.25247192 C104.96255055 -0.21326633 107.53666021 -0.17307213 111.40322876 2.17279053 C113.41055856 4.43397063 113.92407663 5.28981239 113.82521057 8.26742554 C113.82649963 8.92742554 113.8277887 9.58742554 113.82911682 10.26742554 C112.94430175 13.39173805 111.93403082 14.34486346 109.26271057 16.26742554 C105.620723 16.88155091 102.0010869 16.80292014 98.31544495 16.76913452 C97.1996254 16.77453751 96.08380585 16.77994049 94.93417358 16.7855072 C91.24133377 16.79802686 87.54926863 16.78148097 83.85646057 16.76351929 C81.29343118 16.7636742 78.73040156 16.76516187 76.16737366 16.76792908 C70.79392789 16.76931453 65.42076843 16.75716355 60.04737854 16.73397827 C53.83747959 16.70736885 47.62795429 16.70562163 41.41801786 16.71736664 C35.44108735 16.72815086 29.4643279 16.72185143 23.48739624 16.70781136 C20.94523512 16.70328947 18.40306301 16.70296646 15.86090088 16.70687675 C12.31036212 16.70978141 8.76043744 16.69331666 5.2099762 16.67147827 C3.62797173 16.67823074 3.62797173 16.67823074 2.01400757 16.68511963 C1.04666183 16.675215 0.0793161 16.66531036 -0.91734314 16.65510559 C-1.75651024 16.6526757 -2.59567734 16.6502458 -3.46027374 16.64774227 C-6.30732345 16.17221606 -7.66913282 15.26147854 -9.73728943 13.26742554 C-10.61010091 9.83852327 -11.06651771 7.37482977 -10.04978943 3.95492554 C-7.38046369 0.5229353 -4.17142872 0.01698578 0 0 Z " fill="#000000" transform="translate(321.73728942871094,271.7325744628906)"/>
<path d="M0 0 C1.09485214 -0.00700928 2.18970428 -0.01401855 3.31773376 -0.02124023 C6.93538809 -0.03883969 10.55225964 -0.02718979 14.16992188 -0.01367188 C16.68428701 -0.01636621 19.19865113 -0.02024813 21.7130127 -0.02526855 C26.98209617 -0.03116626 32.25097621 -0.02297328 37.52001953 -0.00390625 C43.60559026 0.0178617 49.69062491 0.01080987 55.77618265 -0.01121187 C61.63832113 -0.03157338 67.50025636 -0.02938989 73.3624115 -0.01768494 C75.8535113 -0.01501553 78.34462478 -0.01829486 80.83570862 -0.02760315 C84.31662297 -0.03775542 87.79650625 -0.02228443 91.27734375 0 C92.3081456 -0.00809692 93.33894745 -0.01619385 94.40098572 -0.02453613 C98.81982382 0.02790381 101.4127269 0.07872393 105.25500488 2.40148926 C107.50467417 4.92874071 108.13867188 6.12978139 108.13867188 9.51757812 C105.86156344 15.15613234 105.86156344 15.15613234 103.13867188 16.51757812 C101.61472917 16.61829368 100.08648207 16.65698865 98.55923462 16.66474915 C97.11234001 16.6754821 97.11234001 16.6754821 95.63621521 16.68643188 C94.57435501 16.68912079 93.51249481 16.69180969 92.41845703 16.69458008 C91.30292953 16.70115128 90.18740204 16.70772247 89.03807068 16.7144928 C85.33462463 16.73425646 81.63121915 16.74589407 77.92773438 16.75585938 C76.66581646 16.7599349 75.40389854 16.76401043 74.10374069 16.76820946 C68.11618017 16.7869276 62.12864436 16.80149183 56.14106238 16.80982143 C49.22745619 16.81959792 42.31416983 16.84592839 35.40067637 16.88632232 C29.4141781 16.92010095 23.42783535 16.93196467 17.44123459 16.93602562 C14.89346521 16.94090924 12.34569967 16.95257323 9.79799271 16.97106361 C6.23762507 16.99530116 2.67809992 16.99451802 -0.88232422 16.98754883 C-1.94013596 17.00035889 -2.99794769 17.01316895 -4.08781433 17.02636719 C-11.22421283 16.97529318 -11.22421283 16.97529318 -14.51211548 14.61320496 C-15.95577759 12.37087714 -16.42900207 11.16663909 -16.42382812 8.51757812 C-16.44574219 7.85757812 -16.46765625 7.19757813 -16.49023438 6.51757812 C-14.15040299 -0.92337635 -6.32000747 -0.04964351 0 0 Z " fill="#000000" transform="translate(92.861328125,271.482421875)"/>
<path d="M0 0 C1.28704834 -0.01485695 1.28704834 -0.01485695 2.60009766 -0.03001404 C4.00751221 -0.02326157 4.00751221 -0.02326157 5.44335938 -0.01637268 C6.43384277 -0.02323593 7.42432617 -0.03009918 8.44482422 -0.03717041 C11.72573088 -0.0555034 15.00616238 -0.05159191 18.28710938 -0.0459137 C20.56250159 -0.05047207 22.83789243 -0.0557766 25.11328125 -0.0617981 C29.88482248 -0.07074177 34.65619645 -0.06829137 39.42773438 -0.05836487 C45.55160884 -0.04686836 51.67490729 -0.06709122 57.79870605 -0.09628201 C62.49808436 -0.11459988 67.19732348 -0.11436044 71.89672852 -0.10864449 C74.15503752 -0.10849076 76.41335566 -0.11457724 78.67163086 -0.12693596 C81.82507823 -0.1417622 84.97744651 -0.13123047 88.13085938 -0.11402893 C89.53827393 -0.12853088 89.53827393 -0.12853088 90.97412109 -0.14332581 C97.26042812 -0.07127676 97.26042812 -0.07127676 99.8671875 2.20028687 C101.22364673 5.42567998 101.1575503 7.93023141 100.78710938 11.38768005 C99.86619568 13.5730896 99.86619568 13.5730896 97.78710938 15.38768005 C94.58378293 16.0129373 91.40156254 15.94380324 88.14672852 15.92112732 C87.15785141 15.92974289 86.1689743 15.93835846 85.15013123 15.94723511 C81.87391147 15.9699798 78.59854122 15.96314014 75.32226562 15.9540863 C73.04926803 15.95931833 70.77627261 15.96559325 68.50328064 15.97286987 C63.73588863 15.98329 58.96879479 15.97868965 54.20141602 15.96409607 C48.08647711 15.94691156 41.97247807 15.97039184 35.85764408 16.00558567 C31.16248831 16.02752807 26.46755848 16.02612569 21.77236748 16.01782036 C19.51767382 16.01699901 17.26296387 16.02389734 15.00831795 16.03859138 C11.8572498 16.05597707 8.70788385 16.0415432 5.55688477 16.01878357 C4.62220367 16.03047577 3.68752258 16.04216797 2.72451782 16.05421448 C-3.56409943 15.96162048 -3.56409943 15.96162048 -6.82740784 13.07479858 C-8.71900313 9.40608411 -8.30312576 7.31252653 -7.21289062 3.38768005 C-5.02043831 0.53269683 -3.55034197 0.01157172 0 0 Z " fill="#000000" transform="translate(334.212890625,240.61231994628906)"/>
<path d="M0 0 C0.98887711 -0.00861557 1.97775421 -0.01723114 2.99659729 -0.02610779 C6.27281705 -0.04885249 9.54818729 -0.04201282 12.82446289 -0.03295898 C15.09746049 -0.03819101 17.3704559 -0.04446593 19.64344788 -0.05174255 C24.41083989 -0.06216268 29.17793373 -0.05756233 33.9453125 -0.04296875 C40.06025141 -0.02578424 46.17425045 -0.04926452 52.28908443 -0.08445835 C56.98424021 -0.10640075 61.67917004 -0.10499837 66.37436104 -0.09669304 C68.6290547 -0.09587169 70.88376464 -0.10277002 73.13841057 -0.11746407 C76.28947872 -0.13484975 79.43884467 -0.12041588 82.58984375 -0.09765625 C83.52452484 -0.10934845 84.45920593 -0.12104065 85.42221069 -0.13308716 C91.71082795 -0.04049316 91.71082795 -0.04049316 94.97413635 2.84632874 C96.86573165 6.51504321 96.44985427 8.60860079 95.35961914 12.53344727 C93.80063795 14.56353254 92.9405189 15.42036854 90.40588379 15.913764 C89.66036255 15.9161939 88.91484131 15.91862379 88.14672852 15.92112732 C86.85968018 15.93598427 86.85968018 15.93598427 85.54663086 15.95114136 C84.60835449 15.94663971 83.67007813 15.94213806 82.70336914 15.9375 C81.71288574 15.94436325 80.72240234 15.9512265 79.7019043 15.95829773 C76.42099763 15.97663072 73.14056613 15.97271923 69.85961914 15.96704102 C67.58422692 15.97159939 65.30883608 15.97690392 63.03344727 15.98292542 C58.26190603 15.99186909 53.49053206 15.98941869 48.71899414 15.97949219 C42.59511968 15.96799568 36.47182123 15.98821854 30.34802246 16.01740932 C25.64864415 16.0357272 20.94940503 16.03548776 16.25 16.0297718 C13.99169099 16.02961808 11.73337285 16.03570455 9.47509766 16.04806328 C6.32165029 16.06288952 3.16928201 16.05235779 0.01586914 16.03515625 C-0.92240723 16.04482422 -1.86068359 16.05449219 -2.82739258 16.06445312 C-9.11369961 15.99240408 -9.11369961 15.99240408 -11.72045898 13.72084045 C-13.07691822 10.49544734 -13.01082179 7.99089591 -12.64038086 4.53344727 C-10.28419263 -1.05799552 -5.24960104 -0.03657315 0 0 Z " fill="#000000" transform="translate(89.640380859375,240.466552734375)"/>
<path d="M0 0 C0.6770549 -0.0071553 1.3541098 -0.01431061 2.05168152 -0.02168274 C4.27855937 -0.03852364 6.50341086 -0.01920016 8.73022461 0.00219727 C10.2829149 0.00136822 11.8356051 -0.00109251 13.38829041 -0.00511169 C16.63738521 -0.00796637 19.88578937 0.00669969 23.13476562 0.03417969 C27.29690264 0.06829139 31.45780738 0.06223227 35.6200037 0.04351711 C38.82427727 0.03294395 42.02826456 0.04188713 45.23251152 0.05690193 C46.76708564 0.06208003 48.30168971 0.06160643 49.83625984 0.05535698 C51.98133687 0.04989936 54.12465479 0.07029173 56.26953125 0.09765625 C57.48911026 0.10385483 58.70868927 0.11005341 59.96522522 0.11643982 C63.64678339 0.72670071 64.82265162 1.71199799 67.07006836 4.63110352 C67.63647461 6.63110352 67.63647461 6.63110352 67.63256836 8.63110352 C67.65448242 9.29110352 67.67639648 9.95110352 67.69897461 10.63110352 C66.70570716 13.7898174 64.78896888 14.83393166 62.07006836 16.63110352 C58.88293457 17.14576721 58.88293457 17.14576721 55.24780273 17.16455078 C54.5821077 17.17316635 53.91641266 17.18178192 53.23054504 17.19065857 C51.04123489 17.2132673 48.85320999 17.20659075 46.66381836 17.19750977 C45.13594179 17.20274736 43.60806845 17.20902434 42.0802002 17.21629333 C38.88249464 17.22668779 35.68523436 17.22214978 32.48754883 17.20751953 C28.39488369 17.19032474 24.3036216 17.21383853 20.21111298 17.24900913 C17.0574213 17.27099537 13.90406483 17.26953901 10.75032043 17.26124382 C9.24166829 17.26042511 7.73299135 17.26727337 6.22441101 17.28201485 C4.11284726 17.29948772 2.00379773 17.28490236 -0.10766602 17.26220703 C-1.30725952 17.26124527 -2.50685303 17.26028351 -3.74279785 17.2592926 C-7.85545909 16.4486806 -9.34877841 14.86636292 -11.92993164 11.63110352 C-12.55493164 8.63110352 -12.55493164 8.63110352 -11.92993164 5.63110352 C-8.22910516 0.97760549 -5.88494826 0.00463785 0 0 Z " fill="#000000" transform="translate(367.929931640625,208.368896484375)"/>
<path d="M0 0 C0.67530258 -0.00861557 1.35060516 -0.01723114 2.04637146 -0.02610779 C4.27357568 -0.04876793 6.49952154 -0.04202947 8.72680664 -0.03295898 C10.27853265 -0.03819496 11.83025546 -0.04447135 13.38197327 -0.05174255 C16.63273097 -0.06214702 19.88305095 -0.05758557 23.13378906 -0.04296875 C27.29485627 -0.02578812 31.45454169 -0.04926515 35.61545467 -0.08445835 C38.81975921 -0.10644589 42.02373386 -0.10498763 45.22809029 -0.09669304 C46.76186195 -0.09587409 48.29565797 -0.10272675 49.82935905 -0.11746407 C51.97694011 -0.13493547 54.12204856 -0.12035144 56.26953125 -0.09765625 C57.48990585 -0.09669449 58.71028046 -0.09573273 59.96763611 -0.09474182 C64.11359278 0.71113204 65.60345952 2.26917735 68.19946289 5.53344727 C68.82446289 8.53344727 68.82446289 8.53344727 68.19946289 11.53344727 C65.61830966 14.76870667 64.12499034 16.35102435 60.0123291 17.16163635 C58.21293884 17.16307899 58.21293884 17.16307899 56.37719727 17.16455078 C55.71150223 17.17170609 55.04580719 17.17886139 54.35993958 17.18623352 C52.17032188 17.20307419 49.98276542 17.18374928 47.79321289 17.16235352 C46.26533845 17.16318266 44.73746411 17.16564377 43.20959473 17.16966248 C40.01177023 17.17251726 36.81464739 17.15785184 33.61694336 17.13037109 C29.52440002 17.09628776 25.43311089 17.10230894 21.34050751 17.12103367 C18.18680425 17.13161829 15.03339126 17.12265279 11.87971497 17.10764885 C10.37108727 17.10247724 8.86242913 17.10293645 7.35380554 17.1091938 C5.24245366 17.11466419 3.1328778 17.09421748 1.02172852 17.06689453 C-0.17786499 17.06069595 -1.3774585 17.05449738 -2.61340332 17.04811096 C-6.41302782 16.43454124 -8.09035272 15.21636776 -10.80053711 12.53344727 C-11.42944336 10.53344727 -11.42944336 10.53344727 -11.36303711 8.53344727 C-11.36432617 7.87344727 -11.36561523 7.21344727 -11.36694336 6.53344727 C-9.705247 0.66594011 -5.46920847 0.02779756 0 0 Z " fill="#000000" transform="translate(87.800537109375,208.466552734375)"/>
<path d="M0 0 C0.65564941 -0.0065712 1.31129883 -0.0131424 1.98681641 -0.01991272 C4.15413533 -0.03960555 6.32138516 -0.05129823 8.48876953 -0.0612793 C9.2299918 -0.06535482 9.97121407 -0.06943035 10.73489761 -0.07362938 C14.65692108 -0.09447134 18.57890973 -0.10878206 22.50097656 -0.11816406 C26.54858685 -0.12923476 30.59564833 -0.16364693 34.6430645 -0.20333576 C37.75893162 -0.22949346 40.87466765 -0.23785502 43.99063492 -0.24144554 C45.48256265 -0.24631244 46.97448449 -0.25792951 48.46630478 -0.27648354 C50.55610341 -0.30086269 52.64447736 -0.29991358 54.734375 -0.29296875 C55.92223602 -0.29883499 57.11009705 -0.30470123 58.33395386 -0.31074524 C62.13191484 0.27498432 63.7916306 1.49894053 66.49658203 4.17700195 C67.12548828 6.17700195 67.12548828 6.17700195 67.05908203 8.17700195 C67.06037109 8.83700195 67.06166016 9.49700195 67.06298828 10.17700195 C66.22795953 13.12551726 64.8860547 14.27414805 62.49658203 16.17700195 C59.3470459 16.69166565 59.3470459 16.69166565 55.58837891 16.71044922 C54.90171646 16.71906479 54.21505402 16.72768036 53.50758362 16.73655701 C51.24311377 16.75921672 48.9798814 16.75247958 46.71533203 16.7434082 C45.13879021 16.74864358 43.56225152 16.75491975 41.98571777 16.76219177 C38.68368781 16.77259569 35.3820888 16.76803461 32.08007812 16.75341797 C27.84941929 16.73622306 23.62011768 16.75973243 19.38961029 16.79490757 C16.1347352 16.81687166 12.88018544 16.81544277 9.6252594 16.80714226 C8.06554169 16.80632231 6.5058002 16.8131942 4.94615173 16.82791328 C2.76484812 16.84534455 0.58599049 16.83083452 -1.59521484 16.80810547 C-3.455755 16.80666283 -3.455755 16.80666283 -5.35388184 16.80519104 C-8.50341797 16.17700195 -8.50341797 16.17700195 -10.90783691 13.82896423 C-12.84995545 10.60103351 -13.0557405 8.88545326 -12.50341797 5.17700195 C-9.47557492 -0.15776914 -5.72547889 0.04751263 0 0 Z " fill="#000000" transform="translate(368.50341796875,176.822998046875)"/>
<path d="M0 0 C0.65594147 -0.00540298 1.31188293 -0.01080597 1.98770142 -0.01637268 C4.14461118 -0.02882652 6.3001772 -0.01239354 8.45703125 0.00561523 C9.96248443 0.00546017 11.46793802 0.00396989 12.97338867 0.00120544 C16.12404085 -0.00017704 19.27423697 0.01235351 22.42480469 0.03515625 C26.4566496 0.06354093 30.4877371 0.06080179 34.51963806 0.04806614 C37.62697786 0.04110013 40.73414361 0.04890867 43.84146118 0.06132317 C45.32776217 0.06582874 46.81408189 0.06618229 48.30038452 0.06225777 C50.38033125 0.05933635 52.45924639 0.07589471 54.5390625 0.09765625 C55.72089111 0.10305923 56.90271973 0.10846222 58.12036133 0.11402893 C61.5900923 0.5411718 63.48553401 1.42233865 66.26953125 3.50170898 C67.69615344 6.35495336 67.57986993 8.33625447 67.26953125 11.50170898 C65.6817627 14.16148376 65.6817627 14.16148376 63.26953125 16.50170898 C60.11999512 17.12989807 60.11999512 17.12989807 56.36132812 17.1328125 C55.67466568 17.1399678 54.98800323 17.14712311 54.28053284 17.15449524 C52.01576754 17.17137371 49.7529844 17.15198822 47.48828125 17.13061523 C45.9117415 17.13144403 44.33520183 17.13390381 42.75866699 17.13792419 C39.45652213 17.14078157 36.15505578 17.12608799 32.85302734 17.09863281 C28.62248637 17.06454919 24.39315856 17.07056827 20.16255951 17.08929539 C16.90767321 17.09986935 13.65306872 17.09092415 10.39820862 17.07591057 C8.83851458 17.07073114 7.27879108 17.07120769 5.71910095 17.07745552 C3.53800291 17.08291291 1.35863516 17.06252006 -0.82226562 17.03515625 C-2.68280579 17.02585838 -2.68280579 17.02585838 -4.58093262 17.01637268 C-8.29410971 16.40960477 -9.47072542 15.44914139 -11.73046875 12.50170898 C-12.296875 10.50170898 -12.296875 10.50170898 -12.29296875 8.50170898 C-12.31488281 7.84170898 -12.33679688 7.18170898 -12.359375 6.50170898 C-10.55179539 0.75338127 -5.29809319 0.00074493 0 0 Z " fill="#000000" transform="translate(88.73046875,176.498291015625)"/>
<path d="M0 0 C0.68666245 -0.00861557 1.37332489 -0.01723114 2.08079529 -0.02610779 C4.34526513 -0.0487675 6.60849751 -0.04203036 8.87304688 -0.03295898 C10.4495887 -0.03819436 12.02612739 -0.04447053 13.60266113 -0.05174255 C16.9046911 -0.06214647 20.20629011 -0.05758539 23.50830078 -0.04296875 C27.73895962 -0.02577385 31.96826122 -0.04928321 36.19876862 -0.08445835 C39.45364371 -0.10642244 42.70819347 -0.10499355 45.96311951 -0.09669304 C47.52283721 -0.09587309 49.0825787 -0.10274498 50.64222717 -0.11746407 C52.82353078 -0.13489533 55.00238842 -0.1203853 57.18359375 -0.09765625 C58.42395386 -0.09669449 59.66431396 -0.09573273 60.94226074 -0.09474182 C64.09179688 0.53344727 64.09179688 0.53344727 66.52746582 2.84632874 C68.09179688 5.53344727 68.09179688 5.53344727 68.02929688 9.15844727 C66.77433656 13.67630441 66.77433656 13.67630441 64.09179688 15.53344727 C60.79282706 16.63310387 58.33797128 16.66702228 54.86376953 16.67871094 C53.57878571 16.68509079 52.29380188 16.69147064 50.96987915 16.69804382 C49.56520627 16.69957264 48.16053289 16.70068652 46.75585938 16.70141602 C45.31480883 16.70462978 43.8737586 16.70799395 42.43270874 16.71150208 C39.41151168 16.71749003 36.3903432 16.71934234 33.36914062 16.71875 C29.50330462 16.71864845 25.63765256 16.732295 21.77186012 16.74952221 C18.79496422 16.7606573 15.81811256 16.76266874 12.84119797 16.76214027 C11.41628765 16.76331833 9.99137612 16.76773033 8.56648636 16.77547264 C6.57055284 16.78530154 4.57456533 16.78112275 2.57861328 16.77636719 C1.44404694 16.77779221 0.30948059 16.77921722 -0.85946655 16.78068542 C-5.09679056 16.43705843 -7.88917621 15.55247418 -10.90820312 12.53344727 C-11.59514663 5.43503108 -11.59514663 5.43503108 -9.31115723 2.43739319 C-6.08879846 -0.11579617 -4.08578617 0.02041832 0 0 Z " fill="#000000" transform="translate(87.908203125,145.466552734375)"/>
<path d="M0 0 C0.68651642 -0.00686325 1.37303284 -0.0137265 2.08035278 -0.02079773 C4.35008417 -0.03910138 6.61912665 -0.03522333 8.88891602 -0.02954102 C10.46688564 -0.03410133 12.04485326 -0.03940645 13.62281799 -0.04542542 C16.93075628 -0.05436363 20.23845325 -0.05192569 23.54638672 -0.04199219 C27.78473274 -0.03050478 32.02224533 -0.05070606 36.26048183 -0.07990932 C39.51961048 -0.09826014 42.77853903 -0.09798111 46.03770638 -0.0922718 C47.60021191 -0.09211843 49.16273087 -0.09817592 50.7251873 -0.11056328 C52.91107231 -0.12545039 55.09541317 -0.11481531 57.28125 -0.09765625 C58.52462631 -0.09749008 59.76800262 -0.09732391 61.04905701 -0.09715271 C64.79605881 0.49785992 65.9913269 1.3669832 68.20532227 4.40405273 C68.67049647 8.12544638 68.71387185 10.43780853 66.95532227 13.77905273 C63.51205271 16.97637446 59.37129211 16.53412145 54.86376953 16.54931641 C53.57886124 16.55569626 52.29395294 16.56207611 50.97010803 16.56864929 C49.57064858 16.57017799 48.17118862 16.57129194 46.77172852 16.57202148 C45.33210721 16.57523623 43.89248623 16.57860046 42.4528656 16.58210754 C39.43764488 16.58808967 36.42245279 16.58994835 33.40722656 16.58935547 C29.54926631 16.58925383 25.69149 16.60291225 21.83357334 16.62012768 C18.86096864 16.63126128 15.88840825 16.63327427 12.91578484 16.63274574 C11.4936656 16.63392356 10.07154513 16.63833425 8.64944649 16.64607811 C6.65841174 16.65590617 4.66732286 16.65172844 2.67626953 16.64697266 C1.54471939 16.64839767 0.41316925 16.64982269 -0.75267029 16.65129089 C-3.85213726 16.39938273 -6.02332779 15.78913648 -8.79467773 14.40405273 C-10.96186979 11.74431703 -10.79002637 10.31567677 -10.60717773 6.84155273 C-9.0673662 0.32696548 -6.39717369 0.02781617 0 0 Z " fill="#000000" transform="translate(366.794677734375,145.595947265625)"/>
<path d="M0 0 C4.7151405 1.79845612 8.059146 5.8781966 11.51904297 9.41894531 C12.34597656 10.21429688 13.17291016 11.00964844 14.02490234 11.82910156 C19.92391752 17.76221509 19.92391752 17.76221509 20.68310547 22.73144531 C20.02610344 26.07618294 19.69924357 27.59845449 17.08154297 29.79394531 C13.51196745 30.78549407 11.22260315 31.32630958 7.80419922 29.73144531 C4.1282202 27.11554059 1.05852236 24.0606047 -2.10595703 20.85644531 C-2.734375 20.23576172 -3.36279297 19.61507812 -4.01025391 18.97558594 C-4.61289062 18.37037109 -5.21552734 17.76515625 -5.83642578 17.14160156 C-6.38065186 16.59511963 -6.92487793 16.0486377 -7.4855957 15.4855957 C-9.9891956 12.52982066 -10.9701276 10.63789797 -10.73095703 6.73144531 C-9.90216409 3.73504007 -9.34729015 2.63985848 -6.91845703 0.79394531 C-4.48279565 -0.42388538 -2.66822622 -0.43582642 0 0 Z " fill="#000000" transform="translate(321.91845703125,179.2060546875)"/>
<path d="M0 0 C2.5 1.5625 2.5 1.5625 4 4 C4.74873573 7.539478 4.79274367 9.78175813 2.77734375 12.87890625 C0.94180289 15.0268796 -0.993081 17.0107787 -3 19 C-3.86496094 19.88945313 -4.72992188 20.77890625 -5.62109375 21.6953125 C-13.67571191 29.90190459 -13.67571191 29.90190459 -18.375 30.25 C-22 30 -22 30 -24.375 28.9375 C-26.95206416 25.86484658 -27.19687078 24.00303918 -27 20 C-25.13454664 16.88643756 -22.56951079 14.53973169 -20 12 C-19.04271644 10.94516533 -18.08986435 9.88629815 -17.140625 8.82421875 C-16.11595428 7.71487795 -15.08990992 6.60680438 -14.0625 5.5 C-13.58530518 4.95899658 -13.10811035 4.41799316 -12.61645508 3.8605957 C-8.41883379 -0.5115453 -5.73201755 -0.66982211 0 0 Z " fill="#000000" transform="translate(338,38)"/>
<path d="M0 0 C2.35352451 1.56901634 2.87641182 2.6733741 3.875 5.3125 C4.07297894 9.56904714 2.23261867 12.54592031 -0.49609375 15.76489258 C-2.2708088 17.63716653 -4.08971307 19.44988559 -5.9375 21.25 C-6.86852539 22.18585938 -6.86852539 22.18585938 -7.81835938 23.140625 C-13.24676915 28.50544318 -13.24676915 28.50544318 -17 30 C-20.68060775 29.87085587 -23.0716765 29.77859391 -25.9375 27.375 C-27.54168794 23.78916815 -27.62198283 21.94313642 -27 18 C-24.40407286 14.49624311 -21.30165822 11.59920048 -18.125 8.625 C-17.28324219 7.80644531 -16.44148437 6.98789063 -15.57421875 6.14453125 C-7.55660354 -1.5908639 -7.55660354 -1.5908639 0 0 Z " fill="#000000" transform="translate(197,180)"/>
<path d="M0 0 C0.66257812 0.09152344 1.32515625 0.18304687 2.0078125 0.27734375 C4.611845 1.37234486 5.41492889 2.65058163 6.875 5.0625 C7.53060303 9.51717013 7.38441451 14.00221699 7.375 18.5 C7.40335937 19.72783203 7.43171875 20.95566406 7.4609375 22.22070312 C7.48280733 32.26442454 7.48280733 32.26442454 4.53125 35.37109375 C1.23234261 37.47172155 -0.28871223 37.86172662 -4.125 37.0625 C-6.70955859 35.40807754 -7.69851835 34.68698783 -9.125 32.0625 C-9.88357301 27.55491456 -9.82208734 23.12322578 -9.75 18.5625 C-9.76933594 17.33917969 -9.78867188 16.11585937 -9.80859375 14.85546875 C-9.75418711 4.89905288 -9.75418711 4.89905288 -6.84375 1.72265625 C-4.11212958 0.05464091 -3.09510479 -0.54012613 0 0 Z " fill="#000000" transform="translate(257.125,4.9375)"/>
<path d="M0 0 C5.00037997 1.30214891 8.29158601 5.63676898 11.72412109 9.28295898 C12.53816406 10.09958008 13.35220703 10.91620117 14.19091797 11.75756836 C20.91551189 18.68406835 20.91551189 18.68406835 21.28662109 23.59545898 C19.00951266 29.2340132 19.00951266 29.2340132 16.28662109 30.59545898 C12.86656324 31.14266824 10.39217374 31.30502694 7.39990234 29.38452148 C5.26329702 27.53828646 3.27468014 25.60120539 1.28662109 23.59545898 C0.39716797 22.73049805 -0.49228516 21.86553711 -1.40869141 20.97436523 C-9.58830818 12.94622285 -9.58830818 12.94622285 -10.02587891 8.22045898 C-9.71337891 4.59545898 -9.71337891 4.59545898 -8.21337891 2.15795898 C-5.42444439 0.41487491 -3.28660897 -0.06914063 0 0 Z " fill="#000000" transform="translate(179.71337890625,37.404541015625)"/>
<path d="M0 0 C1.93262695 -0.03673828 1.93262695 -0.03673828 3.90429688 -0.07421875 C5.14115234 -0.07808594 6.37800781 -0.08195312 7.65234375 -0.0859375 C8.78534912 -0.09415527 9.91835449 -0.10237305 11.08569336 -0.11083984 C14.71739877 0.48188498 15.88950378 1.44962463 18.0625 4.375 C18.53168683 8.12849462 18.59386381 10.41348453 16.75 13.75 C12.4237893 17.91598067 5.28481787 16.64022536 -0.3125 16.6875 C-1.44945312 16.71650391 -2.58640625 16.74550781 -3.7578125 16.77539062 C-12.13421124 16.83929508 -12.13421124 16.83929508 -16.16796875 14.5078125 C-18.25393815 11.99359773 -18.85788275 10.63930719 -18.9375 7.375 C-16.33506056 -1.95040798 -8.04803934 0.00802797 0 0 Z " fill="#000000" transform="translate(155.9375,115.625)"/>
<path d="M0 0 C1.23234375 -0.00515625 2.4646875 -0.0103125 3.734375 -0.015625 C5.66023438 0.00757812 5.66023438 0.00757812 7.625 0.03125 C8.90890625 0.01578125 10.1928125 0.0003125 11.515625 -0.015625 C12.74796875 -0.01046875 13.9803125 -0.0053125 15.25 0 C16.93996094 0.00676758 16.93996094 0.00676758 18.6640625 0.01367188 C22.24186156 0.6390787 23.41984671 1.70283669 25.625 4.53125 C26.33382303 7.43909881 25.96471789 9.473789 25.625 12.53125 C23.81336733 15.20556489 22.74738923 15.49045359 19.625 16.53125 C15.67100107 16.78978371 11.71155198 16.76262931 7.75 16.78125 C6.11611328 16.8121875 6.11611328 16.8121875 4.44921875 16.84375 C3.39605469 16.84890625 2.34289062 16.8540625 1.2578125 16.859375 C0.29762207 16.8687207 -0.66256836 16.87806641 -1.65185547 16.88769531 C-5.16576887 16.42774251 -7.85313176 15.05311824 -10.375 12.53125 C-10.96808468 5.2956169 -10.96808468 5.2956169 -8.74682617 2.43286133 C-5.67402461 -0.03075693 -3.907301 0.01564709 0 0 Z " fill="#000000" transform="translate(348.375,115.46875)"/>
</svg>
